<svg width="81" height="81" viewBox="0 0 81 81" fill="none" xmlns="http://www.w3.org/2000/svg">
<path d="M48.0938 34.1719H58.2188" stroke="#8898AA" stroke-width="7" stroke-linecap="round" stroke-linejoin="round"/>
<path d="M22.7812 34.1719H32.9062" stroke="#8898AA" stroke-width="7" stroke-linecap="round" stroke-linejoin="round"/>
<path d="M27.8438 29.1094V39.2344" stroke="#8898AA" stroke-width="7" stroke-linecap="round" stroke-linejoin="round"/>
<path d="M54.4276 17.6365L26.5795 17.7188C22.7112 17.7191 18.9666 19.082 16.003 21.5682C13.0395 24.0544 11.0464 27.505 10.3736 31.3144L10.3763 31.3149L5.19853 57.9445C4.87148 59.8001 5.14448 61.7115 5.97785 63.4013C6.81123 65.0911 8.16159 66.4713 9.83283 67.3413C11.5041 68.2113 13.4091 68.5259 15.2713 68.2394C17.1336 67.9529 18.8559 67.0802 20.1884 65.748L20.1878 65.7475L33.8678 50.6251L54.4276 50.5427C58.7913 50.5427 62.9762 48.8093 66.0617 45.7237C69.1473 42.6382 70.8807 38.4532 70.8807 34.0896C70.8807 29.726 69.1473 25.541 66.0617 22.4555C62.9762 19.3699 58.7913 17.6365 54.4276 17.6365V17.6365Z" stroke="#8898AA" stroke-width="7" stroke-linecap="round" stroke-linejoin="round"/>
<path d="M70.6308 31.2327L75.8044 57.9447C76.1314 59.8002 75.8585 61.7117 75.0251 63.4015C74.1917 65.0913 72.8413 66.4714 71.1701 67.3414C69.4989 68.2114 67.5938 68.526 65.7316 68.2395C63.8694 67.953 62.147 67.0803 60.8145 65.7481L60.8151 65.7476L47.1445 50.572" stroke="#8898AA" stroke-width="7" stroke-linecap="round" stroke-linejoin="round"/>
</svg>
