<svg width="24" height="25" viewBox="0 0 24 25" fill="none" xmlns="http://www.w3.org/2000/svg">
<g clip-path="url(#clip0)">
<path fill-rule="evenodd" clip-rule="evenodd" d="M9.55908 5.7886C9.12538 6.55962 9 7.59746 9 8.54834C9 9.10062 8.55228 9.54834 8 9.54834C7.44772 9.54834 7 9.10062 7 8.54834C7 7.49922 7.12462 6.03706 7.81592 4.80808C8.17102 4.17679 8.68058 3.59846 9.39691 3.1832C10.1125 2.76839 10.979 2.54834 12 2.54834C13.021 2.54834 13.8875 2.76839 14.6031 3.1832C15.3194 3.59846 15.829 4.17679 16.1841 4.80807C16.8754 6.03705 17 7.49921 17 8.54832C17.0001 9.1006 16.5524 9.54833 16.0001 9.54834C15.4478 9.54835 15.0001 9.10065 15 8.54836C15 7.59747 14.8746 6.55963 14.4409 5.78861C14.2335 5.41989 13.9618 5.12322 13.6 4.91348C13.2375 4.70329 12.729 4.54834 12 4.54834C11.271 4.54834 10.7625 4.70329 10.4 4.91348C10.0382 5.12322 9.76648 5.41989 9.55908 5.7886Z" fill="#333333"/>
<path d="M14.0001 14.5483C14.0001 15.6529 13.1046 16.5483 12.0001 16.5483C10.8955 16.5483 10.0001 15.6529 10.0001 14.5483C10.0001 13.4438 10.8955 12.5483 12.0001 12.5483C13.1046 12.5483 14.0001 13.4438 14.0001 14.5483Z" fill="#333333"/>
<path fill-rule="evenodd" clip-rule="evenodd" d="M12 13.5483C12.5523 13.5483 13 13.9961 13 14.5483V17.5483C13 18.1006 12.5523 18.5483 12 18.5483C11.4477 18.5483 11 18.1006 11 17.5483V14.5483C11 13.9961 11.4477 13.5483 12 13.5483Z" fill="#333333"/>
<path fill-rule="evenodd" clip-rule="evenodd" d="M3 11.5483C3 9.89149 4.34315 8.54834 6 8.54834H18C19.6569 8.54834 21 9.89149 21 11.5483V19.5483C21 21.2052 19.6569 22.5483 18 22.5483H6C4.34315 22.5483 3 21.2052 3 19.5483V11.5483ZM6 10.5483C5.44772 10.5483 5 10.9961 5 11.5483V19.5483C5 20.1006 5.44772 20.5483 6 20.5483H18C18.5523 20.5483 19 20.1006 19 19.5483V11.5483C19 10.9961 18.5523 10.5483 18 10.5483H6Z" fill="#333333"/>
</g>
<defs>
<clipPath id="clip0">
<rect width="24" height="24" fill="white" transform="translate(0 0.54834)"/>
</clipPath>
</defs>
</svg>
