<svg width="81" height="81" viewBox="0 0 81 81" fill="none" xmlns="http://www.w3.org/2000/svg">
<path d="M52.3125 6.75C54.0535 6.74982 55.773 7.13448 57.348 7.87646C58.923 8.61843 60.3145 9.69938 61.4229 11.0419C62.5313 12.3845 63.3293 13.9555 63.7596 15.6424C64.19 17.3294 64.2422 19.0907 63.9124 20.8001L63.8618 21.0229C66.798 22.0023 69.365 23.8551 71.2194 26.3334C73.0738 28.8117 74.127 31.7972 74.2382 34.8905C74.3494 37.9837 73.5133 41.0372 71.8417 43.6422C70.17 46.2472 67.7427 48.2796 64.8844 49.4674L61.2191 71.4285C61.0881 72.2166 60.6818 72.9326 60.0725 73.4492C59.4631 73.9659 58.6903 74.2496 57.8914 74.25H23.1086C22.3097 74.2496 21.5369 73.9659 20.9276 73.4492C20.3182 72.9326 19.9119 72.2166 19.7809 71.4285L16.308 50.6048C13.9723 50.4723 11.7545 49.535 10.0316 47.9522C8.30875 46.3695 7.18715 44.239 6.85747 41.9228C6.52778 39.6067 7.01035 37.2478 8.22315 35.2472C9.43594 33.2466 11.3041 31.7277 13.5101 30.9488L13.5 30.375C13.4993 26.9577 14.3635 23.5957 16.0121 20.6023C17.6606 17.6089 20.0399 15.0814 22.9283 13.2552C25.8167 11.4289 29.1204 10.3634 32.5315 10.1577C35.9427 9.95211 39.3504 10.6131 42.4373 12.0791C43.5115 10.4408 44.9768 9.09583 46.7008 8.16545C48.4249 7.23508 50.3534 6.74863 52.3125 6.75ZM30.375 50.625H23.1525L25.9673 67.5H30.375V50.625ZM43.875 50.625H37.125V67.5H43.875V50.625ZM57.8441 50.625H50.625V67.5H55.0294L57.8441 50.625ZM33.75 16.875C26.5208 16.875 20.6179 22.5585 20.2669 29.5886L20.25 30.2535L20.2601 30.8273C20.284 32.1525 19.9171 33.4555 19.2053 34.5737C18.4935 35.6918 17.4682 36.5756 16.2574 37.1149L15.7511 37.314C15.0017 37.5808 14.3705 38.1036 13.9687 38.7901C13.5669 39.4767 13.4202 40.283 13.5545 41.067C13.6888 41.8511 14.0955 42.5626 14.7029 43.0763C15.3103 43.59 16.0795 43.8728 16.875 43.875H59.0625C60.31 43.875 61.542 43.5984 62.6697 43.065C63.7974 42.5317 64.7929 41.7549 65.5843 40.7907C66.3758 39.8264 66.9436 38.6986 67.2468 37.4886C67.5501 36.2785 67.5813 35.0163 67.3381 33.7927C67.0949 32.5691 66.5834 31.4147 65.8405 30.4126C65.0976 29.4105 64.1416 28.5855 63.0416 27.9972C61.9416 27.4089 60.7247 27.0718 59.4788 27.0103C58.2328 26.9487 56.9887 27.1642 55.836 27.6413L55.2454 27.9146C53.688 28.7171 51.8797 28.8827 50.2026 28.3763C48.5254 27.8699 47.1108 26.7313 46.2578 25.2011L46.0215 24.7388C44.9429 22.3912 43.2133 20.4024 41.0382 19.0085C38.863 17.6146 36.3335 16.8742 33.75 16.875ZM52.3125 13.5C51.4376 13.4998 50.5776 13.7264 49.8163 14.1576C49.0551 14.5888 48.4186 15.2099 47.9689 15.9604C49.7116 17.6762 51.1295 19.6932 52.1539 21.9139C53.6524 21.1444 55.2926 20.6179 57.0341 20.385C57.33 19.6182 57.4348 18.7908 57.3393 17.9744C57.2438 17.158 56.951 16.3772 56.4861 15.6993C56.0212 15.0215 55.3983 14.467 54.6712 14.0838C53.944 13.7006 53.1345 13.5002 52.3125 13.5Z" fill="#8898AA"/>
</svg>
