<svg width="81" height="81" viewBox="0 0 81 81" fill="none" xmlns="http://www.w3.org/2000/svg">
<path d="M25.3125 17.7188H17.7188C16.3208 17.7188 15.1875 18.852 15.1875 20.25V60.75C15.1875 62.148 16.3208 63.2812 17.7188 63.2812H25.3125C26.7105 63.2812 27.8438 62.148 27.8438 60.75V20.25C27.8438 18.852 26.7105 17.7188 25.3125 17.7188Z" stroke="#8898AA" stroke-width="7" stroke-linecap="round" stroke-linejoin="round"/>
<path d="M63.2812 17.7188H55.6875C54.2895 17.7188 53.1562 18.852 53.1562 20.25V60.75C53.1562 62.148 54.2895 63.2812 55.6875 63.2812H63.2812C64.6792 63.2812 65.8125 62.148 65.8125 60.75V20.25C65.8125 18.852 64.6792 17.7188 63.2812 17.7188Z" stroke="#8898AA" stroke-width="7" stroke-linecap="round" stroke-linejoin="round"/>
<path d="M65.8125 25.3125H73.4062C74.0776 25.3125 74.7214 25.5792 75.1961 26.0539C75.6708 26.5286 75.9375 27.1724 75.9375 27.8438V53.1562C75.9375 53.8276 75.6708 54.4714 75.1961 54.9461C74.7214 55.4208 74.0776 55.6875 73.4062 55.6875H65.8125" stroke="#8898AA" stroke-width="7" stroke-linecap="round" stroke-linejoin="round"/>
<path d="M15.1875 55.6875H7.59375C6.92242 55.6875 6.27859 55.4208 5.80389 54.9461C5.32918 54.4714 5.0625 53.8276 5.0625 53.1562V27.8438C5.0625 27.1724 5.32918 26.5286 5.80389 26.0539C6.27859 25.5792 6.92242 25.3125 7.59375 25.3125H15.1875" stroke="#8898AA" stroke-width="7" stroke-linecap="round" stroke-linejoin="round"/>
<path d="M27.8438 40.5H53.1562" stroke="#8898AA" stroke-width="7" stroke-linecap="round" stroke-linejoin="round"/>
</svg>
