<svg width="24" height="25" viewBox="0 0 24 25" fill="none" xmlns="http://www.w3.org/2000/svg">
<path d="M12 7.54834C14.76 7.54834 17 9.78834 17 12.5483C17 13.1983 16.87 13.8083 16.64 14.3783L19.56 17.2983C21.07 16.0383 22.26 14.4083 22.99 12.5483C21.26 8.15834 16.99 5.04834 11.99 5.04834C10.59 5.04834 9.25 5.29834 8.01 5.74834L10.17 7.90834C10.74 7.67834 11.35 7.54834 12 7.54834ZM2 4.81834L4.28 7.09834L4.74 7.55834C3.08 8.84834 1.78 10.5683 1 12.5483C2.73 16.9383 7 20.0483 12 20.0483C13.55 20.0483 15.03 19.7483 16.38 19.2083L16.8 19.6283L19.73 22.5483L21 21.2783L3.27 3.54834L2 4.81834ZM7.53 10.3483L9.08 11.8983C9.03 12.1083 9 12.3283 9 12.5483C9 14.2083 10.34 15.5483 12 15.5483C12.22 15.5483 12.44 15.5183 12.65 15.4683L14.2 17.0183C13.53 17.3483 12.79 17.5483 12 17.5483C9.24 17.5483 7 15.3083 7 12.5483C7 11.7583 7.2 11.0183 7.53 10.3483ZM11.84 9.56834L14.99 12.7183L15.01 12.5583C15.01 10.8983 13.67 9.55834 12.01 9.55834L11.84 9.56834Z" fill="#333333"/>
</svg>
