<svg width="19" height="21" viewBox="0 0 19 21" fill="none" xmlns="http://www.w3.org/2000/svg">
<path d="M16 4.5L14 4.5L14 2.5L2 2.5L2 18.5L14 18.5L14 16.5L16 16.5L16 19.5C16 19.7652 15.8946 20.0196 15.7071 20.2071C15.5196 20.3946 15.2652 20.5 15 20.5L1 20.5C0.734783 20.5 0.480429 20.3946 0.292892 20.2071C0.105356 20.0196 6.42368e-08 19.7652 8.74228e-08 19.5L1.66103e-06 1.5C1.68422e-06 1.23478 0.105358 0.980427 0.292894 0.792891C0.48043 0.605355 0.734785 0.499998 1 0.499998L15 0.5C15.2652 0.5 15.5196 0.605356 15.7071 0.792892C15.8946 0.980428 16 1.23478 16 1.5L16 4.5ZM14 11.5L7 11.5L7 9.5L14 9.5L14 6.5L19 10.5L14 14.5L14 11.5Z" fill="#333333"/>
</svg>
