<svg width="24" height="25" viewBox="0 0 24 25" fill="none" xmlns="http://www.w3.org/2000/svg">
<path d="M12 5.04834C7 5.04834 2.73 8.15834 1 12.5483C2.73 16.9383 7 20.0483 12 20.0483C17 20.0483 21.27 16.9383 23 12.5483C21.27 8.15834 17 5.04834 12 5.04834ZM12 17.5483C9.24 17.5483 7 15.3083 7 12.5483C7 9.78834 9.24 7.54834 12 7.54834C14.76 7.54834 17 9.78834 17 12.5483C17 15.3083 14.76 17.5483 12 17.5483ZM12 9.54834C10.34 9.54834 9 10.8883 9 12.5483C9 14.2083 10.34 15.5483 12 15.5483C13.66 15.5483 15 14.2083 15 12.5483C15 10.8883 13.66 9.54834 12 9.54834Z" fill="#333333"/>
</svg>
