<?xml version="1.0" encoding="utf-8"?>
<!-- Generator: Adobe Illustrator 25.3.1, SVG Export Plug-In . SVG Version: 6.00 Build 0)  -->
<svg version="1.1" id="Layer_1" xmlns="http://www.w3.org/2000/svg" xmlns:xlink="http://www.w3.org/1999/xlink" x="0px" y="0px"
	 viewBox="0 0 720 446" style="enable-background:new 0 0 720 446;" xml:space="preserve">
<style type="text/css">
	.st0{fill:#045CA7;}
	.st1{fill:#EC1E2E;}
	.st2{fill:#414344;}
	.st3{fill:#221F1F;}
	.st4{fill:#424244;}
</style>
<path class="st0" d="M68.04,180.29c0.67,1.68,1.88,3.2,3.64,4.59c1.76,1.38,4.18,2.64,7.28,3.77c3.09,1.13,7.07,2.2,11.92,3.2
	c9.78,2.18,17,5.19,21.64,9.05c4.64,3.85,6.96,9.17,6.96,15.96c0,3.77-0.75,7.21-2.23,10.31c-1.49,3.1-3.54,5.74-6.15,7.91
	c-2.61,2.18-5.76,3.85-9.44,5.03c-3.68,1.17-7.7,1.76-12.04,1.76c-7.02,0-13.44-1.14-19.26-3.4c-5.81-2.27-11.35-5.77-16.62-10.52
	l6.15-7.28c4.6,4.18,9.24,7.3,13.93,9.35c4.68,2.05,10.08,3.07,16.18,3.07c5.94,0,10.68-1.38,14.24-4.15
	c3.55-2.76,5.33-6.41,5.33-10.93c0-2.09-0.34-3.95-1.01-5.59c-0.67-1.63-1.84-3.12-3.52-4.46c-1.68-1.34-4-2.55-6.98-3.64
	c-2.98-1.09-6.77-2.14-11.38-3.14c-5.03-1.09-9.41-2.34-13.14-3.77c-3.73-1.42-6.81-3.14-9.24-5.15c-2.43-2.01-4.23-4.35-5.41-7.04
	c-1.17-2.68-1.76-5.86-1.76-9.55c0-3.52,0.71-6.74,2.13-9.67c1.42-2.93,3.43-5.46,6.02-7.6c2.59-2.14,5.65-3.81,9.16-5.03
	c3.51-1.22,7.36-1.82,11.54-1.82c6.44,0,12.06,0.89,16.87,2.66c4.81,1.77,9.47,4.44,13.99,8l-5.77,7.65
	c-4.1-3.34-8.22-5.77-12.36-7.28c-4.14-1.5-8.47-2.26-12.98-2.26c-2.84,0-5.42,0.38-7.72,1.13c-2.3,0.75-4.26,1.76-5.9,3.02
	c-1.63,1.26-2.89,2.76-3.76,4.52c-0.88,1.76-1.32,3.64-1.32,5.65C67.04,176.73,67.37,178.61,68.04,180.29z"/>
<path class="st0" d="M190.08,227.8l17.06-52.06h10.04l-22.83,65.36h-8.4l-17.44-51.18l-17.56,51.18h-8.53l-22.71-65.36h10.29
	l17.06,52.06l17.44-52.31h8.03L190.08,227.8z"/>
<path class="st0" d="M229.38,221.09c1.34,2.72,3.05,5.02,5.14,6.9c2.09,1.88,4.43,3.31,7.03,4.26c2.59,0.96,5.31,1.44,8.15,1.44
	c4.52,0,8.38-0.84,11.6-2.51c3.22-1.67,6.17-3.89,8.84-6.65l6.02,5.39c-3.26,3.68-6.98,6.63-11.17,8.84
	c-4.18,2.21-9.37,3.32-15.56,3.32c-4.43,0-8.61-0.81-12.54-2.45c-3.93-1.63-7.37-3.93-10.32-6.9c-2.95-2.97-5.29-6.54-7.03-10.73
	c-1.74-4.18-2.6-8.78-2.6-13.8c0-4.68,0.77-9.1,2.32-13.24c1.55-4.14,3.7-7.73,6.46-10.79c2.76-3.05,6.04-5.46,9.85-7.21
	c3.8-1.76,7.97-2.63,12.48-2.63c4.77,0,9.03,0.9,12.8,2.7c3.76,1.8,6.94,4.25,9.53,7.34c2.59,3.1,4.56,6.73,5.9,10.91
	c1.34,4.18,2.01,8.66,2.01,13.42c0,0.42,0,0.88,0,1.38c0,0.5-0.04,1.05-0.13,1.63h-51.31C227.21,215.26,228.04,218.37,229.38,221.09
	z M268.4,204.59c-0.25-2.93-0.85-5.73-1.81-8.4c-0.96-2.68-2.29-5.02-3.99-7.03c-1.7-2.01-3.78-3.62-6.23-4.83
	c-2.45-1.21-5.3-1.82-8.54-1.82c-2.83,0-5.45,0.56-7.86,1.69c-2.41,1.13-4.53,2.68-6.36,4.64c-1.83,1.97-3.32,4.29-4.49,6.96
	c-1.16,2.68-1.91,5.6-2.24,8.78H268.4z"/>
<path class="st0" d="M295.39,221.09c1.34,2.72,3.05,5.02,5.14,6.9c2.09,1.88,4.43,3.31,7.03,4.26c2.59,0.96,5.31,1.44,8.15,1.44
	c4.52,0,8.38-0.84,11.6-2.51c3.22-1.67,6.17-3.89,8.84-6.65l6.02,5.39c-3.26,3.68-6.98,6.63-11.17,8.84
	c-4.18,2.21-9.37,3.32-15.56,3.32c-4.43,0-8.61-0.81-12.54-2.45c-3.93-1.63-7.37-3.93-10.32-6.9c-2.95-2.97-5.29-6.54-7.03-10.73
	c-1.74-4.18-2.6-8.78-2.6-13.8c0-4.68,0.77-9.1,2.32-13.24c1.55-4.14,3.7-7.73,6.46-10.79c2.76-3.05,6.04-5.46,9.85-7.21
	c3.8-1.76,7.97-2.63,12.48-2.63c4.77,0,9.03,0.9,12.8,2.7c3.76,1.8,6.94,4.25,9.53,7.34c2.59,3.1,4.56,6.73,5.9,10.91
	c1.34,4.18,2.01,8.66,2.01,13.42c0,0.42,0,0.88,0,1.38c0,0.5-0.04,1.05-0.13,1.63h-51.31C293.22,215.26,294.06,218.37,295.39,221.09
	z M334.41,204.59c-0.25-2.93-0.85-5.73-1.81-8.4c-0.96-2.68-2.29-5.02-3.99-7.03c-1.7-2.01-3.78-3.62-6.23-4.83
	c-2.45-1.21-5.3-1.82-8.54-1.82c-2.83,0-5.45,0.56-7.86,1.69c-2.41,1.13-4.53,2.68-6.36,4.64c-1.83,1.97-3.32,4.29-4.49,6.96
	c-1.16,2.68-1.91,5.6-2.24,8.78H334.41z"/>
<path class="st0" d="M363.85,222.16c0,4.01,1,6.82,3.01,8.41c2.01,1.59,4.64,2.38,7.9,2.38c1.67,0,3.24-0.17,4.7-0.5
	c1.46-0.33,3.03-0.92,4.7-1.76v8.28c-1.67,0.92-3.45,1.61-5.33,2.07c-1.88,0.46-3.99,0.69-6.33,0.69c-2.59,0-5.02-0.34-7.28-1
	c-2.26-0.67-4.2-1.74-5.83-3.2c-1.63-1.46-2.91-3.37-3.83-5.71c-0.92-2.34-1.38-5.14-1.38-8.4v-39.14h-9.03v-8.53h9.03v-19.57h9.66
	v19.57h20.57v8.53h-20.57V222.16z"/>
<path class="st1" d="M400.21,240.6h-9.66v-91.58h9.66v38.01c2.17-3.51,5.02-6.5,8.53-8.97c3.51-2.47,8.07-3.7,13.67-3.7
	c3.93,0,7.42,0.63,10.48,1.88c3.05,1.25,5.65,3.03,7.78,5.33c2.13,2.3,3.76,5.04,4.89,8.22c1.13,3.18,1.69,6.69,1.69,10.54v40.27
	h-9.66v-37.89c0-6.02-1.55-10.79-4.64-14.3c-3.1-3.51-7.53-5.27-13.3-5.27c-2.76,0-5.33,0.48-7.72,1.44
	c-2.38,0.96-4.45,2.34-6.21,4.14c-1.76,1.8-3.12,3.95-4.08,6.46c-0.96,2.51-1.44,5.27-1.44,8.28V240.6z"/>
<path class="st1" d="M597.98,240.6h-9.66v-64.86h9.66v16.94c1.17-2.68,2.63-5.14,4.39-7.4c1.76-2.26,3.76-4.2,6.02-5.83
	c2.26-1.63,4.72-2.86,7.4-3.7c2.68-0.83,5.56-1.21,8.66-1.13v10.41h-0.75c-3.51,0-6.84,0.63-9.97,1.88s-5.88,3.14-8.22,5.65
	c-2.34,2.51-4.18,5.63-5.52,9.35c-1.34,3.72-2.01,8.01-2.01,12.86V240.6z"/>
<path class="st1" d="M645.65,222.16c0,4.01,1,6.82,3.01,8.41c2.01,1.59,4.64,2.38,7.9,2.38c1.67,0,3.24-0.17,4.7-0.5
	c1.46-0.33,3.03-0.92,4.7-1.76v8.28c-1.67,0.92-3.45,1.61-5.33,2.07c-1.88,0.46-3.99,0.69-6.33,0.69c-2.59,0-5.02-0.34-7.28-1
	c-2.26-0.67-4.2-1.74-5.83-3.2c-1.63-1.46-2.91-3.37-3.83-5.71c-0.92-2.34-1.38-5.14-1.38-8.4v-39.14h-9.03v-8.53h9.03v-19.57h9.66
	v19.57h20.57v8.53h-20.57V222.16z"/>
<g>
	<g>
		<path class="st2" d="M153.16,114.95h-25.09v14.8h22.43V134h-22.43v18.05h-4.68v-41.43h29.77V114.95z"/>
		<path class="st2" d="M185.48,142.91c-0.81,1.95-1.92,3.66-3.34,5.12c-1.42,1.46-3.12,2.61-5.09,3.46
			c-1.97,0.85-4.1,1.27-6.39,1.27c-2.29,0-4.4-0.42-6.33-1.27c-1.93-0.85-3.61-1.99-5.03-3.43c-1.42-1.44-2.53-3.13-3.31-5.06
			c-0.79-1.93-1.18-3.98-1.18-6.15c0-2.17,0.39-4.23,1.18-6.18c0.79-1.95,1.89-3.66,3.31-5.12c1.42-1.46,3.11-2.61,5.06-3.46
			c1.95-0.85,4.09-1.27,6.42-1.27c2.29,0,4.41,0.42,6.36,1.27c1.95,0.85,3.64,1.99,5.06,3.43c1.42,1.44,2.52,3.13,3.31,5.06
			c0.79,1.93,1.18,3.99,1.18,6.15C186.69,138.9,186.29,140.96,185.48,142.91z M181.16,132.15c-0.57-1.46-1.37-2.72-2.4-3.81
			c-1.03-1.08-2.23-1.94-3.61-2.57c-1.38-0.63-2.88-0.95-4.5-0.95c-1.66,0-3.18,0.31-4.56,0.92c-1.38,0.61-2.55,1.46-3.52,2.54
			c-0.97,1.08-1.73,2.34-2.28,3.78c-0.55,1.44-0.83,2.98-0.83,4.63c0,1.65,0.29,3.21,0.86,4.66c0.57,1.46,1.36,2.72,2.37,3.78
			c1.01,1.06,2.2,1.91,3.58,2.54c1.38,0.63,2.88,0.94,4.5,0.94c1.66,0,3.18-0.3,4.56-0.91c1.38-0.61,2.56-1.45,3.55-2.51
			c0.99-1.06,1.76-2.31,2.31-3.75c0.55-1.44,0.83-2.98,0.83-4.63C182.02,135.16,181.73,133.61,181.16,132.15z"/>
		<path class="st2" d="M195.73,152.06h-4.56v-30.6h4.56v7.99c0.55-1.26,1.24-2.43,2.07-3.49c0.83-1.07,1.78-1.98,2.84-2.75
			c1.06-0.77,2.23-1.35,3.49-1.75c1.26-0.39,2.62-0.57,4.08-0.53v4.91h-0.35c-1.66,0-3.23,0.3-4.7,0.89
			c-1.48,0.59-2.77,1.48-3.88,2.66c-1.1,1.18-1.97,2.65-2.6,4.41c-0.63,1.76-0.95,3.78-0.95,6.07V152.06z"/>
		<path class="st2" d="M246.01,152.06h-4.68v-16.39l-17.22-25.03h5.68l13.94,20.71l14.06-20.71h5.44l-17.22,24.97V152.06z"/>
		<path class="st2" d="M289.24,142.91c-0.81,1.95-1.92,3.66-3.34,5.12c-1.42,1.46-3.12,2.61-5.09,3.46
			c-1.97,0.85-4.1,1.27-6.39,1.27c-2.29,0-4.4-0.42-6.33-1.27c-1.93-0.85-3.61-1.99-5.03-3.43c-1.42-1.44-2.53-3.13-3.31-5.06
			c-0.79-1.93-1.18-3.98-1.18-6.15c0-2.17,0.39-4.23,1.18-6.18c0.79-1.95,1.89-3.66,3.31-5.12c1.42-1.46,3.11-2.61,5.06-3.46
			c1.95-0.85,4.09-1.27,6.42-1.27c2.29,0,4.41,0.42,6.36,1.27c1.95,0.85,3.64,1.99,5.06,3.43c1.42,1.44,2.52,3.13,3.31,5.06
			c0.79,1.93,1.18,3.99,1.18,6.15C290.45,138.9,290.05,140.96,289.24,142.91z M284.92,132.15c-0.57-1.46-1.37-2.72-2.4-3.81
			c-1.03-1.08-2.23-1.94-3.61-2.57c-1.38-0.63-2.88-0.95-4.5-0.95c-1.66,0-3.18,0.31-4.56,0.92c-1.38,0.61-2.55,1.46-3.52,2.54
			c-0.97,1.08-1.73,2.34-2.28,3.78c-0.55,1.44-0.83,2.98-0.83,4.63c0,1.65,0.29,3.21,0.86,4.66c0.57,1.46,1.36,2.72,2.37,3.78
			c1.01,1.06,2.2,1.91,3.58,2.54c1.38,0.63,2.88,0.94,4.5,0.94c1.66,0,3.18-0.3,4.56-0.91c1.38-0.61,2.56-1.45,3.55-2.51
			c0.99-1.06,1.76-2.31,2.31-3.75c0.55-1.44,0.83-2.98,0.83-4.63C285.78,135.16,285.49,133.61,284.92,132.15z"/>
		<path class="st2" d="M316.79,121.46h4.5v30.6h-4.5v-5.33c-1.03,1.66-2.37,3.07-4.02,4.23c-1.66,1.16-3.81,1.75-6.45,1.75
			c-1.85,0-3.5-0.3-4.94-0.89c-1.44-0.59-2.66-1.43-3.67-2.52c-1.01-1.08-1.78-2.38-2.31-3.88c-0.53-1.5-0.8-3.16-0.8-4.97v-19h4.56
			v17.87c0,2.84,0.73,5.09,2.19,6.75c1.46,1.66,3.55,2.49,6.27,2.49c1.3,0,2.52-0.23,3.64-0.68c1.12-0.45,2.09-1.1,2.9-1.95
			c0.81-0.85,1.45-1.86,1.92-3.05c0.47-1.18,0.71-2.49,0.71-3.91V121.46z"/>
		<path class="st2" d="M332.2,152.06h-4.56v-30.6h4.56v7.99c0.55-1.26,1.24-2.43,2.07-3.49c0.83-1.07,1.78-1.98,2.84-2.75
			c1.06-0.77,2.23-1.35,3.49-1.75c1.26-0.39,2.62-0.57,4.08-0.53v4.91h-0.36c-1.66,0-3.23,0.3-4.7,0.89
			c-1.48,0.59-2.77,1.48-3.88,2.66c-1.1,1.18-1.97,2.65-2.6,4.41c-0.63,1.76-0.95,3.78-0.95,6.07V152.06z"/>
	</g>
</g>
<g>
	<g>
		<g>
			<path class="st2" d="M616.76,332.74c-0.51-1.95-1.66-16.57-20.84-27.93l-3.91-2.32c0.72-0.8,1.37-1.66,1.95-2.61l8.83-14.4
				c3.76-6.08,3.18-13.82-1.45-19.25l-10.57-12.52c-3.4-4.05-8.61-6.22-13.89-5.79c-2.32,0.14-4.49,0.8-6.44,1.88
				c0-1.37-0.14-2.6-0.51-3.83c-1.16-3.69-4.05-6.66-8.83-9.05c-7.24-3.69-13.68-3.33-18.6,0.72l-12.45-24.68l12.23-14.26
				c2.82-3.4,4.05-7.74,3.62-12.08c-0.43-4.41-2.61-8.32-6.01-11.07c-3.4-2.82-7.74-4.05-12.08-3.62c-4.41,0.43-7.82,2.68-9.99,4.85
				l-4.27,4.05c-2.1-2.89-4.2-6.01-9.55-7.53c-4.49-1.23-8.47-1.23-13.17,1.09c-4.49,2.17-7.81,5.93-9.41,10.64
				c-1.66,4.7-1.3,9.77,0.87,14.26l5.72,11.72l-10.42,12.88l-0.07,0.07c-1.09,1.95-2.03,3.91-2.97,5.86l-6.01,21.13
				c-0.07,0.29-0.14,0.58-0.22,0.87c-3.26,15.2-8.39,29.89-11.58,45.08c-0.22,1.66-0.29,3.33-0.29,4.99
				c0,15.85,8.25,30.97,22.29,39.29l70.63,41.97c6.8,4.05,14.62,6.22,22.5,6.37c16.28,0.29,31.62-8.32,39.94-22.29
				C617.99,356.76,619.8,344.53,616.76,332.74z M538.97,241.71c-0.14,0.14-0.22,0.36-0.36,0.58l-2.03,3.18
				c-0.07-0.14-0.07-0.29-0.14-0.43c-1.09-4.27-4.05-7.74-8.54-10.13c-5.5-2.82-11.72-2.6-16.64,0.07l15.34-17.73L538.97,241.71z
				 M486.72,197.13c-1.59-3.26-1.81-7.02-0.65-10.49c1.23-3.4,3.69-6.22,6.95-7.82c3.55-1.74,7.31-1.59,10.71-0.36
				c2.82,0.94,5.07,2.89,6.58,5.57l-18.81,22.79L486.72,197.13z M607.57,364.72c-7.45,12.52-21.06,20.12-35.6,19.9
				c-7.02-0.14-13.97-2.1-20.04-5.72l-70.63-41.9c-15.49-9.19-23.16-27.79-18.6-45.23l0.14-0.36v-0.36c0-1.45,16.5-59.99,16.5-59.99
				c0.43-1.45,1.09-2.89,2.1-4.05l39.15-45.95c1.88-2.39,4.7-3.91,7.74-4.2c3.04-0.36,6.08,0.58,8.47,2.53
				c2.39,1.88,3.91,4.63,4.2,7.74c0.36,3.04-0.58,6.08-2.53,8.47l-34.52,40.6l-7.24,17.66l-22.29,34.73
				c-4.92,7.6-2.75,17.8,4.92,22.72l2.68-4.12c-5.35-3.47-6.95-10.56-3.47-15.92l22-34.23l0.14,0.07l0.43-1.01l8.32-12.95
				c3.47-5.28,10.2-6.95,16.21-3.84c3.18,1.66,5.28,4.05,6.08,7.02c0.8,3.11,0.14,6.73-1.88,9.84l-23.3,37.27
				c-2.32,3.76-3.11,8.18-2.1,12.45c1.01,4.34,3.55,7.96,7.31,10.28l2.6-4.2c-2.6-1.59-4.41-4.2-5.14-7.16
				c-0.65-3.04-0.14-6.08,1.52-8.68l32.06-51.23c3.69-6.01,8.97-7.16,16.06-3.55c3.55,1.81,5.64,3.76,6.37,6.08
				c0.65,2.17,0.29,4.92-1.16,8.39c0,0.07,0,0.07,0,0.07l-26.56,44.36c-2.24,3.76-2.89,8.18-1.88,12.45
				c1.09,4.27,3.76,7.89,7.53,10.13l2.53-4.27c-2.6-1.59-4.49-4.05-5.28-7.09c-0.72-2.97-0.29-6.08,1.3-8.68
				c0,0,26.2-43.34,26.7-44.58c1.95-3.04,5.21-5.07,8.83-5.35c3.69-0.29,7.38,1.23,9.77,4.05l10.56,12.52
				c3.26,3.76,3.62,9.19,1.01,13.46l-8.83,14.47c-1.59,2.6-4.12,4.41-7.16,5.14c-2.53,0.65-5.21,0.36-7.6-0.72l13.03-20.84
				l-4.12-2.68l-15.56,24.97l1.81,1.37c0.36,0.22,0.8,0.51,1.16,0.72c3.76,2.32,8.18,3.04,12.45,2.03c1.45-0.36,2.82-0.94,4.05-1.59
				l5.57,3.33c9.33,5.5,15.92,14.33,18.6,24.89C614.66,344.46,613.14,355.39,607.57,364.72z"/>
		</g>
	</g>
</g>
<g>
	<g>
		<g>
			<path class="st1" d="M576.41,162.68c0-11.13-3.63-24.11-15.34-38.67C524.15,78.09,514,50.84,514,50.84s-10.15,27.25-47.07,73.17
				c-11.71,14.57-15.34,27.55-15.34,38.67c0,1.09,0.04,2.18,0.1,3.26c-0.01,0.12-0.02,0.23-0.03,0.35
				c-0.57,9.79,3.76,20.33,9.9,29.68c2.2,3.36,5.04,6.69,8.26,10c-4.64-7.36-6.97-15.56-6.53-23.21c0.48-8.31,4.16-15.6,10.37-20.5
				c5.69-4.5,12.08-6.78,18.99-6.78c7.07,0,14.21,2.74,19.86,7.49c5.66-4.75,12.8-7.49,19.87-7.49c6.91,0,13.3,2.28,18.99,6.78
				c6.2,4.91,9.89,12.19,10.37,20.5c0.46,7.89-2.02,16.38-6.96,23.91c-2.54,3.87-6.08,7.71-10.17,11.5
				c8.97-7.27,16.92-14.67,21.86-22.2c6.14-9.35,10.47-19.89,9.9-29.68c-0.01-0.12-0.02-0.23-0.03-0.35
				C576.37,164.86,576.41,163.78,576.41,162.68z"/>
		</g>
	</g>
</g>
<g>
	<g>
		<ellipse class="st1" cx="496.93" cy="186.44" rx="4.14" ry="4.06"/>
	</g>
</g>
<g>
	<g>
		<path class="st3" d="M70.54,293.38h2.13l6.29,19.17l6.55-19.1h2.72l-8.19,23.1h-2.2l-6.29-18.61l-6.32,18.61h-2.16l-8.19-23.1
			h2.82l6.55,19.1L70.54,293.38z"/>
		<path class="st3" d="M97.97,316.38h-2.52v-23.92h2.52v9.93c0.57-0.92,1.31-1.7,2.23-2.34c0.92-0.64,2.11-0.97,3.57-0.97
			c1.03,0,1.94,0.16,2.74,0.49c0.8,0.33,1.47,0.79,2.03,1.39c0.56,0.6,0.98,1.32,1.28,2.15c0.29,0.83,0.44,1.75,0.44,2.75v10.52
			h-2.52v-9.89c0-1.57-0.4-2.82-1.21-3.74c-0.81-0.92-1.97-1.38-3.47-1.38c-0.72,0-1.39,0.13-2.01,0.38
			c-0.62,0.25-1.16,0.61-1.62,1.08c-0.46,0.47-0.81,1.03-1.06,1.69c-0.25,0.66-0.38,1.38-0.38,2.16V316.38z"/>
		<path class="st3" d="M121.01,311.28c0.35,0.71,0.8,1.31,1.34,1.8c0.55,0.49,1.16,0.86,1.83,1.11c0.68,0.25,1.39,0.38,2.13,0.38
			c1.18,0,2.19-0.22,3.03-0.66c0.84-0.44,1.61-1.02,2.31-1.74l1.57,1.41c-0.85,0.96-1.82,1.73-2.92,2.31
			c-1.09,0.58-2.45,0.87-4.06,0.87c-1.16,0-2.25-0.21-3.28-0.64c-1.03-0.43-1.92-1.03-2.69-1.8c-0.77-0.78-1.38-1.71-1.83-2.8
			c-0.45-1.09-0.68-2.29-0.68-3.6c0-1.22,0.2-2.37,0.61-3.46c0.4-1.08,0.97-2.02,1.69-2.82c0.72-0.8,1.58-1.43,2.57-1.88
			c0.99-0.46,2.08-0.69,3.26-0.69c1.24,0,2.36,0.23,3.34,0.7c0.98,0.47,1.81,1.11,2.49,1.92c0.68,0.81,1.19,1.76,1.54,2.85
			c0.35,1.09,0.52,2.26,0.52,3.51c0,0.11,0,0.23,0,0.36c0,0.13-0.01,0.27-0.03,0.43h-13.4
			C120.44,309.76,120.66,310.57,121.01,311.28z M131.2,306.98c-0.07-0.76-0.22-1.5-0.47-2.2c-0.25-0.7-0.6-1.31-1.04-1.83
			c-0.45-0.52-0.99-0.94-1.63-1.26c-0.64-0.32-1.38-0.47-2.23-0.47c-0.74,0-1.42,0.15-2.05,0.44c-0.63,0.29-1.18,0.7-1.66,1.21
			c-0.48,0.51-0.87,1.12-1.17,1.82c-0.3,0.7-0.5,1.46-0.59,2.29H131.2z"/>
		<path class="st3" d="M143.94,316.38h-2.52v-16.94h2.52v4.42c0.31-0.7,0.69-1.34,1.15-1.93c0.46-0.59,0.98-1.1,1.57-1.52
			c0.59-0.43,1.23-0.75,1.93-0.97c0.7-0.22,1.45-0.32,2.26-0.29v2.72h-0.2c-0.92,0-1.79,0.16-2.6,0.49
			c-0.82,0.33-1.53,0.82-2.15,1.47s-1.09,1.47-1.44,2.44c-0.35,0.97-0.52,2.09-0.52,3.36V316.38z"/>
		<path class="st3" d="M159.44,311.28c0.35,0.71,0.8,1.31,1.34,1.8c0.55,0.49,1.16,0.86,1.83,1.11c0.68,0.25,1.39,0.38,2.13,0.38
			c1.18,0,2.19-0.22,3.03-0.66c0.84-0.44,1.61-1.02,2.31-1.74l1.57,1.41c-0.85,0.96-1.82,1.73-2.92,2.31s-2.45,0.87-4.06,0.87
			c-1.16,0-2.25-0.21-3.28-0.64c-1.03-0.43-1.92-1.03-2.69-1.8c-0.77-0.78-1.38-1.71-1.83-2.8c-0.45-1.09-0.68-2.29-0.68-3.6
			c0-1.22,0.2-2.37,0.61-3.46c0.4-1.08,0.97-2.02,1.69-2.82c0.72-0.8,1.58-1.43,2.57-1.88c0.99-0.46,2.08-0.69,3.26-0.69
			c1.24,0,2.36,0.23,3.34,0.7c0.98,0.47,1.81,1.11,2.49,1.92c0.68,0.81,1.19,1.76,1.54,2.85c0.35,1.09,0.52,2.26,0.52,3.51
			c0,0.11,0,0.23,0,0.36c0,0.13-0.01,0.27-0.03,0.43h-13.4C158.87,309.76,159.09,310.57,159.44,311.28z M169.63,306.98
			c-0.07-0.76-0.22-1.5-0.47-2.2c-0.25-0.7-0.6-1.31-1.04-1.83c-0.45-0.52-0.99-0.94-1.63-1.26c-0.64-0.32-1.38-0.47-2.23-0.47
			c-0.74,0-1.42,0.15-2.05,0.44c-0.63,0.29-1.18,0.7-1.66,1.21s-0.87,1.12-1.17,1.82c-0.3,0.7-0.5,1.46-0.59,2.29H169.63z"/>
		<g>
			<g>
				<path class="st0" d="M206.87,316.38v-3.41c-0.35,0.5-0.74,0.98-1.16,1.44c-0.43,0.46-0.9,0.86-1.42,1.21
					c-0.52,0.35-1.11,0.62-1.75,0.82c-0.64,0.2-1.36,0.3-2.15,0.3c-1.03,0-2.02-0.2-2.98-0.59c-0.96-0.39-1.82-0.97-2.59-1.72
					c-0.76-0.75-1.38-1.68-1.83-2.77c-0.46-1.09-0.69-2.34-0.69-3.73c0-1.4,0.23-2.64,0.69-3.73c0.46-1.09,1.07-2.02,1.83-2.77
					c0.76-0.75,1.63-1.33,2.59-1.74c0.96-0.4,1.95-0.61,2.98-0.61c0.79,0,1.51,0.1,2.16,0.29c0.65,0.2,1.24,0.46,1.77,0.79
					c0.52,0.33,1,0.71,1.42,1.15s0.8,0.9,1.13,1.38v-10.22h2.52v23.92H206.87z M206.46,305.22c-0.34-0.8-0.8-1.49-1.38-2.05
					c-0.58-0.56-1.23-1-1.97-1.32c-0.73-0.32-1.49-0.47-2.28-0.47c-0.83,0-1.61,0.15-2.33,0.44s-1.35,0.72-1.88,1.27
					c-0.54,0.55-0.96,1.24-1.28,2.05c-0.32,0.81-0.48,1.73-0.48,2.75c0,1,0.16,1.9,0.48,2.71c0.32,0.8,0.75,1.5,1.29,2.07
					c0.55,0.58,1.18,1.02,1.9,1.32c0.72,0.3,1.49,0.46,2.29,0.46c0.79,0,1.54-0.16,2.28-0.47c0.73-0.32,1.39-0.75,1.97-1.32
					c0.58-0.56,1.04-1.26,1.38-2.07c0.34-0.81,0.51-1.71,0.51-2.69C206.97,306.92,206.8,306.03,206.46,305.22z"/>
			</g>
		</g>
		<g>
			<g>
				<path class="st0" d="M217.85,295.74v-2.78h2.88v2.78H217.85z M218.01,316.38v-16.94h2.52v16.94H218.01z"/>
			</g>
		</g>
		<g>
			<g>
				<path class="st0" d="M232.67,301.78c-0.82,0.23-1.62,0.53-2.41,0.9l-0.75-2.06c0.94-0.44,1.89-0.78,2.85-1.03
					c0.96-0.25,2.06-0.38,3.31-0.38c2.31,0,4.1,0.57,5.34,1.72c1.25,1.15,1.87,2.84,1.87,5.09v10.35h-2.42v-2.56
					c-0.59,0.77-1.38,1.44-2.38,2.03s-2.24,0.88-3.75,0.88c-0.79,0-1.56-0.11-2.31-0.33c-0.75-0.22-1.43-0.55-2.03-1
					c-0.6-0.45-1.08-1-1.44-1.66c-0.36-0.65-0.54-1.43-0.54-2.33s0.17-1.69,0.52-2.37c0.35-0.69,0.85-1.26,1.49-1.72
					s1.41-0.81,2.29-1.05c0.88-0.24,1.86-0.36,2.93-0.36c1.09,0,2.04,0.07,2.85,0.2c0.81,0.13,1.59,0.31,2.36,0.52v-0.59
					c0-1.53-0.44-2.68-1.33-3.46c-0.88-0.78-2.12-1.16-3.72-1.16C234.4,301.44,233.49,301.56,232.67,301.78z M231.86,308.75
					c-0.85,0.63-1.27,1.5-1.27,2.59c0,0.55,0.11,1.03,0.34,1.44c0.23,0.42,0.54,0.77,0.93,1.07c0.39,0.29,0.84,0.52,1.36,0.67
					c0.51,0.15,1.05,0.23,1.62,0.23c0.78,0,1.52-0.11,2.2-0.34c0.69-0.23,1.28-0.55,1.8-0.95c0.51-0.4,0.91-0.88,1.21-1.44
					c0.29-0.56,0.44-1.17,0.44-1.85v-1.64c-0.63-0.17-1.36-0.34-2.17-0.49c-0.82-0.15-1.75-0.23-2.79-0.23
					C233.93,307.8,232.71,308.11,231.86,308.75z"/>
			</g>
		</g>
		<g>
			<g>
				<path class="st0" d="M267.89,311.63c-0.46,1.09-1.07,2.01-1.82,2.77c-0.75,0.75-1.62,1.33-2.59,1.74c-0.97,0.4-1.97,0.61-3,0.61
					c-0.79,0-1.51-0.1-2.16-0.3c-0.66-0.2-1.24-0.46-1.77-0.79c-0.52-0.33-1-0.71-1.43-1.15c-0.43-0.44-0.8-0.89-1.13-1.38v3.24
					h-2.52v-23.92H254v10.39c0.35-0.5,0.74-0.98,1.16-1.44c0.43-0.46,0.9-0.86,1.42-1.2c0.52-0.34,1.11-0.61,1.75-0.82
					c0.64-0.21,1.36-0.31,2.15-0.31c1,0,1.99,0.2,2.96,0.59c0.97,0.39,1.84,0.97,2.6,1.72c0.76,0.75,1.38,1.68,1.83,2.77
					c0.46,1.09,0.69,2.34,0.69,3.73C268.58,309.29,268.35,310.54,267.89,311.63z M265.52,305.22c-0.32-0.8-0.75-1.49-1.29-2.07
					c-0.55-0.58-1.18-1.02-1.9-1.32c-0.72-0.3-1.49-0.46-2.29-0.46c-0.79,0-1.55,0.16-2.28,0.47c-0.73,0.32-1.39,0.75-1.97,1.32
					c-0.58,0.57-1.04,1.25-1.38,2.05c-0.34,0.8-0.51,1.7-0.51,2.67c0,0.98,0.17,1.88,0.51,2.69c0.34,0.81,0.8,1.5,1.38,2.07
					c0.58,0.57,1.23,1.01,1.97,1.32c0.73,0.32,1.49,0.47,2.28,0.47c0.81,0,1.58-0.15,2.31-0.44c0.73-0.29,1.36-0.72,1.9-1.27
					c0.54-0.55,0.96-1.24,1.28-2.05c0.32-0.82,0.47-1.73,0.47-2.76C265.99,306.93,265.83,306.03,265.52,305.22z"/>
			</g>
		</g>
		<g>
			<g>
				<path class="st0" d="M278.88,311.28c0.35,0.71,0.8,1.31,1.34,1.8c0.55,0.49,1.16,0.86,1.83,1.11c0.68,0.25,1.39,0.38,2.13,0.38
					c1.18,0,2.19-0.22,3.03-0.66c0.84-0.44,1.61-1.02,2.31-1.74l1.57,1.41c-0.85,0.96-1.82,1.73-2.92,2.31s-2.45,0.87-4.06,0.87
					c-1.16,0-2.25-0.21-3.28-0.64c-1.03-0.43-1.92-1.03-2.69-1.8c-0.77-0.78-1.38-1.71-1.83-2.8c-0.45-1.09-0.68-2.29-0.68-3.6
					c0-1.22,0.2-2.37,0.61-3.46c0.4-1.08,0.97-2.02,1.69-2.82c0.72-0.8,1.58-1.43,2.57-1.88c0.99-0.46,2.08-0.69,3.26-0.69
					c1.24,0,2.36,0.23,3.34,0.7c0.98,0.47,1.81,1.11,2.49,1.92c0.68,0.81,1.19,1.76,1.54,2.85c0.35,1.09,0.52,2.26,0.52,3.51
					c0,0.11,0,0.23,0,0.36c0,0.13-0.01,0.27-0.03,0.43h-13.4C278.31,309.76,278.53,310.57,278.88,311.28z M289.06,306.98
					c-0.07-0.76-0.22-1.5-0.47-2.2c-0.25-0.7-0.6-1.31-1.04-1.83c-0.45-0.52-0.99-0.94-1.63-1.26c-0.64-0.32-1.38-0.47-2.23-0.47
					c-0.74,0-1.42,0.15-2.05,0.44c-0.63,0.29-1.18,0.7-1.66,1.21c-0.48,0.51-0.87,1.12-1.17,1.82c-0.3,0.7-0.5,1.46-0.59,2.29
					H289.06z"/>
			</g>
		</g>
		<g>
			<g>
				<path class="st0" d="M301.91,311.56c0,1.05,0.26,1.78,0.79,2.2c0.52,0.41,1.21,0.62,2.06,0.62c0.44,0,0.85-0.04,1.23-0.13
					c0.38-0.09,0.79-0.24,1.23-0.46v2.16c-0.44,0.24-0.9,0.42-1.39,0.54c-0.49,0.12-1.04,0.18-1.65,0.18c-0.68,0-1.31-0.09-1.9-0.26
					c-0.59-0.17-1.1-0.45-1.52-0.84c-0.43-0.38-0.76-0.88-1-1.49c-0.24-0.61-0.36-1.34-0.36-2.19v-10.22h-2.36v-2.23h2.36v-5.11
					h2.52v5.11h5.37v2.23h-5.37V311.56z"/>
			</g>
		</g>
		<g>
			<g>
				<path class="st0" d="M316.47,311.28c0.35,0.71,0.8,1.31,1.34,1.8c0.55,0.49,1.16,0.86,1.83,1.11c0.68,0.25,1.39,0.38,2.13,0.38
					c1.18,0,2.19-0.22,3.03-0.66c0.84-0.44,1.61-1.02,2.31-1.74l1.57,1.41c-0.85,0.96-1.82,1.73-2.92,2.31s-2.45,0.87-4.06,0.87
					c-1.16,0-2.25-0.21-3.28-0.64c-1.03-0.43-1.92-1.03-2.69-1.8c-0.77-0.78-1.38-1.71-1.83-2.8c-0.45-1.09-0.68-2.29-0.68-3.6
					c0-1.22,0.2-2.37,0.61-3.46c0.4-1.08,0.97-2.02,1.69-2.82c0.72-0.8,1.58-1.43,2.57-1.88c0.99-0.46,2.08-0.69,3.26-0.69
					c1.24,0,2.36,0.23,3.34,0.7c0.98,0.47,1.81,1.11,2.49,1.92c0.68,0.81,1.19,1.76,1.54,2.85c0.35,1.09,0.52,2.26,0.52,3.51
					c0,0.11,0,0.23,0,0.36c0,0.13-0.01,0.27-0.03,0.43h-13.4C315.9,309.76,316.12,310.57,316.47,311.28z M326.66,306.98
					c-0.07-0.76-0.22-1.5-0.47-2.2s-0.6-1.31-1.04-1.83c-0.45-0.52-0.99-0.94-1.63-1.26c-0.64-0.32-1.38-0.47-2.23-0.47
					c-0.74,0-1.42,0.15-2.05,0.44c-0.63,0.29-1.18,0.7-1.66,1.21c-0.48,0.51-0.87,1.12-1.17,1.82c-0.3,0.7-0.5,1.46-0.59,2.29
					H326.66z"/>
			</g>
		</g>
		<g>
			<g>
				<path class="st0" d="M347.73,313.77c-0.32,0.62-0.74,1.15-1.28,1.59c-0.54,0.44-1.17,0.77-1.9,1c-0.73,0.23-1.52,0.34-2.37,0.34
					c-1.22,0-2.46-0.22-3.7-0.67c-1.25-0.45-2.35-1.05-3.31-1.82l1.28-1.8c0.92,0.7,1.87,1.23,2.87,1.61c0.99,0.37,1.99,0.56,3,0.56
					c1.03,0,1.87-0.24,2.52-0.72c0.66-0.48,0.98-1.14,0.98-1.97v-0.07c0-0.41-0.11-0.78-0.34-1.08c-0.23-0.31-0.54-0.57-0.93-0.8
					c-0.39-0.23-0.85-0.43-1.36-0.61c-0.51-0.17-1.04-0.34-1.59-0.49c-0.66-0.2-1.32-0.41-1.98-0.64c-0.67-0.23-1.27-0.52-1.8-0.87
					s-0.97-0.79-1.31-1.31c-0.34-0.52-0.51-1.18-0.51-1.97V304c0-0.72,0.14-1.38,0.43-1.98c0.28-0.6,0.68-1.11,1.2-1.54
					c0.51-0.43,1.12-0.75,1.83-0.98c0.71-0.23,1.48-0.34,2.31-0.34c1.05,0,2.11,0.17,3.18,0.51c1.07,0.34,2.04,0.79,2.92,1.36
					l-1.15,1.9c-0.79-0.5-1.61-0.9-2.47-1.2c-0.86-0.3-1.71-0.44-2.54-0.44c-1,0-1.8,0.24-2.39,0.71c-0.59,0.47-0.88,1.05-0.88,1.75
					v0.07c0,0.39,0.12,0.74,0.36,1.03c0.24,0.3,0.56,0.55,0.97,0.77c0.4,0.22,0.87,0.41,1.39,0.59c0.52,0.17,1.07,0.35,1.64,0.52
					c0.66,0.2,1.3,0.41,1.95,0.65c0.64,0.24,1.23,0.55,1.75,0.92c0.52,0.37,0.94,0.82,1.26,1.34c0.32,0.52,0.47,1.17,0.47,1.93v0.07
					C348.21,312.44,348.05,313.15,347.73,313.77z"/>
			</g>
		</g>
		<path class="st3" d="M372.63,301.78c-0.82,0.23-1.62,0.53-2.41,0.9l-0.75-2.06c0.94-0.44,1.89-0.78,2.85-1.03
			c0.96-0.25,2.06-0.38,3.31-0.38c2.32,0,4.1,0.57,5.34,1.72c1.25,1.15,1.87,2.84,1.87,5.09v10.35h-2.42v-2.56
			c-0.59,0.77-1.38,1.44-2.37,2.03c-0.99,0.59-2.24,0.88-3.75,0.88c-0.79,0-1.56-0.11-2.31-0.33c-0.75-0.22-1.43-0.55-2.03-1
			c-0.6-0.45-1.08-1-1.44-1.66c-0.36-0.65-0.54-1.43-0.54-2.33s0.17-1.69,0.52-2.37c0.35-0.69,0.85-1.26,1.49-1.72
			s1.41-0.81,2.29-1.05c0.88-0.24,1.86-0.36,2.93-0.36c1.09,0,2.04,0.07,2.85,0.2c0.81,0.13,1.59,0.31,2.36,0.52v-0.59
			c0-1.53-0.44-2.68-1.33-3.46c-0.89-0.78-2.12-1.16-3.72-1.16C374.36,301.44,373.45,301.56,372.63,301.78z M371.83,308.75
			c-0.85,0.63-1.27,1.5-1.27,2.59c0,0.55,0.11,1.03,0.34,1.44c0.23,0.42,0.54,0.77,0.93,1.07c0.39,0.29,0.84,0.52,1.35,0.67
			c0.51,0.15,1.05,0.23,1.62,0.23c0.78,0,1.52-0.11,2.2-0.34c0.69-0.23,1.28-0.55,1.8-0.95c0.51-0.4,0.92-0.88,1.21-1.44
			c0.3-0.56,0.44-1.17,0.44-1.85v-1.64c-0.63-0.17-1.35-0.34-2.17-0.49c-0.82-0.15-1.75-0.23-2.79-0.23
			C373.89,307.8,372.67,308.11,371.83,308.75z"/>
		<path class="st3" d="M393.77,316.38h-2.52v-16.94h2.52v2.95c0.57-0.92,1.31-1.7,2.23-2.34c0.92-0.64,2.11-0.97,3.57-0.97
			c1.03,0,1.94,0.16,2.74,0.49s1.47,0.79,2.03,1.39c0.56,0.6,0.98,1.32,1.28,2.15c0.3,0.83,0.44,1.75,0.44,2.75v10.52h-2.52v-9.89
			c0-1.57-0.4-2.82-1.21-3.74c-0.81-0.92-1.97-1.38-3.47-1.38c-0.72,0-1.39,0.13-2.01,0.38c-0.62,0.25-1.16,0.61-1.62,1.08
			c-0.46,0.47-0.81,1.03-1.06,1.69c-0.25,0.66-0.38,1.38-0.38,2.16V316.38z"/>
		<path class="st3" d="M427.99,316.38v-3.41c-0.35,0.5-0.74,0.98-1.16,1.44c-0.43,0.46-0.9,0.86-1.42,1.21
			c-0.52,0.35-1.11,0.62-1.75,0.82c-0.64,0.2-1.36,0.3-2.15,0.3c-1.03,0-2.02-0.2-2.98-0.59c-0.96-0.39-1.82-0.97-2.59-1.72
			c-0.77-0.75-1.38-1.68-1.83-2.77c-0.46-1.09-0.69-2.34-0.69-3.73c0-1.4,0.23-2.64,0.69-3.73c0.46-1.09,1.07-2.02,1.83-2.77
			c0.76-0.75,1.63-1.33,2.59-1.74c0.96-0.4,1.96-0.61,2.98-0.61c0.79,0,1.51,0.1,2.16,0.29c0.66,0.2,1.25,0.46,1.77,0.79
			c0.52,0.33,1,0.71,1.42,1.15s0.8,0.9,1.13,1.38v-10.22h2.52v23.92H427.99z M427.58,305.22c-0.34-0.8-0.8-1.49-1.38-2.05
			c-0.58-0.56-1.23-1-1.97-1.32c-0.73-0.32-1.49-0.47-2.28-0.47c-0.83,0-1.61,0.15-2.33,0.44c-0.72,0.29-1.35,0.72-1.88,1.27
			c-0.54,0.55-0.96,1.24-1.28,2.05c-0.32,0.81-0.47,1.73-0.47,2.75c0,1,0.16,1.9,0.47,2.71c0.32,0.8,0.75,1.5,1.29,2.07
			c0.55,0.58,1.18,1.02,1.9,1.32c0.72,0.3,1.49,0.46,2.29,0.46c0.79,0,1.54-0.16,2.28-0.47s1.39-0.75,1.97-1.32
			c0.58-0.56,1.04-1.26,1.38-2.07c0.34-0.81,0.51-1.71,0.51-2.69C428.08,306.92,427.91,306.03,427.58,305.22z"/>
		<path class="st1" d="M58.74,355.69h-2.52v-23.92h2.52v9.93c0.57-0.92,1.31-1.7,2.23-2.34c0.92-0.64,2.11-0.97,3.57-0.97
			c1.03,0,1.94,0.16,2.74,0.49c0.8,0.33,1.47,0.79,2.03,1.39c0.56,0.6,0.98,1.32,1.28,2.15c0.29,0.83,0.44,1.75,0.44,2.75v10.52
			H68.5v-9.89c0-1.57-0.4-2.82-1.21-3.74c-0.81-0.92-1.97-1.38-3.47-1.38c-0.72,0-1.39,0.13-2.01,0.38
			c-0.62,0.25-1.16,0.61-1.62,1.08c-0.46,0.47-0.81,1.03-1.06,1.69c-0.25,0.66-0.38,1.38-0.38,2.16V355.69z"/>
		<path class="st1" d="M81.79,350.6c0.35,0.71,0.8,1.31,1.34,1.8c0.55,0.49,1.16,0.86,1.83,1.11c0.68,0.25,1.39,0.38,2.13,0.38
			c1.18,0,2.19-0.22,3.03-0.66c0.84-0.44,1.61-1.02,2.31-1.74l1.57,1.41c-0.85,0.96-1.82,1.73-2.92,2.31
			c-1.09,0.58-2.45,0.87-4.06,0.87c-1.16,0-2.25-0.21-3.28-0.64c-1.03-0.43-1.92-1.03-2.69-1.8c-0.77-0.78-1.38-1.71-1.83-2.8
			c-0.45-1.09-0.68-2.29-0.68-3.6c0-1.22,0.2-2.37,0.61-3.46c0.4-1.08,0.97-2.02,1.69-2.82c0.72-0.8,1.58-1.43,2.57-1.88
			c0.99-0.46,2.08-0.69,3.26-0.69c1.24,0,2.36,0.23,3.34,0.7c0.98,0.47,1.81,1.11,2.49,1.92c0.68,0.81,1.19,1.76,1.54,2.85
			c0.35,1.09,0.52,2.26,0.52,3.51c0,0.11,0,0.23,0,0.36c0,0.13-0.01,0.27-0.03,0.43h-13.4C81.22,349.07,81.44,349.89,81.79,350.6z
			 M91.98,346.29c-0.07-0.76-0.22-1.5-0.47-2.2c-0.25-0.7-0.6-1.31-1.04-1.83c-0.45-0.52-0.99-0.94-1.63-1.26
			c-0.64-0.32-1.38-0.47-2.23-0.47c-0.74,0-1.42,0.15-2.05,0.44c-0.63,0.29-1.18,0.7-1.66,1.21s-0.87,1.12-1.17,1.82
			c-0.3,0.7-0.5,1.46-0.59,2.29H91.98z"/>
		<path class="st1" d="M105.42,341.1c-0.82,0.23-1.62,0.53-2.41,0.9l-0.75-2.06c0.94-0.44,1.89-0.78,2.85-1.03
			c0.96-0.25,2.06-0.38,3.31-0.38c2.31,0,4.1,0.57,5.34,1.72c1.25,1.15,1.87,2.84,1.87,5.09v10.35h-2.42v-2.56
			c-0.59,0.77-1.38,1.44-2.38,2.03c-0.99,0.59-2.24,0.88-3.75,0.88c-0.79,0-1.56-0.11-2.31-0.33c-0.75-0.22-1.43-0.55-2.03-1
			c-0.6-0.45-1.08-1-1.44-1.65c-0.36-0.65-0.54-1.43-0.54-2.33s0.17-1.69,0.52-2.37c0.35-0.69,0.85-1.26,1.49-1.72
			c0.64-0.46,1.41-0.81,2.29-1.05c0.88-0.24,1.86-0.36,2.93-0.36c1.09,0,2.04,0.07,2.85,0.2c0.81,0.13,1.59,0.31,2.36,0.52v-0.59
			c0-1.53-0.44-2.68-1.33-3.46c-0.88-0.78-2.12-1.16-3.72-1.16C107.15,340.75,106.24,340.87,105.42,341.1z M104.62,348.06
			c-0.85,0.63-1.27,1.5-1.27,2.59c0,0.55,0.11,1.03,0.34,1.44c0.23,0.42,0.54,0.77,0.93,1.07c0.39,0.29,0.84,0.52,1.36,0.67
			c0.51,0.15,1.05,0.23,1.62,0.23c0.78,0,1.52-0.11,2.2-0.34c0.69-0.23,1.28-0.55,1.8-0.95c0.51-0.4,0.91-0.88,1.21-1.44
			c0.29-0.56,0.44-1.17,0.44-1.85v-1.64c-0.63-0.17-1.36-0.34-2.17-0.49c-0.82-0.15-1.75-0.23-2.79-0.23
			C106.68,347.11,105.46,347.43,104.62,348.06z"/>
		<path class="st1" d="M126.68,355.69h-2.52v-16.94h2.52v4.42c0.31-0.7,0.69-1.34,1.15-1.93c0.46-0.59,0.98-1.1,1.57-1.52
			c0.59-0.43,1.23-0.75,1.93-0.97c0.7-0.22,1.45-0.32,2.26-0.29v2.72h-0.2c-0.92,0-1.79,0.16-2.6,0.49
			c-0.82,0.33-1.53,0.82-2.15,1.47s-1.09,1.47-1.44,2.44c-0.35,0.97-0.52,2.09-0.52,3.36V355.69z"/>
		<path class="st1" d="M144.52,350.88c0,1.05,0.26,1.78,0.79,2.2c0.52,0.41,1.21,0.62,2.06,0.62c0.44,0,0.85-0.04,1.23-0.13
			c0.38-0.09,0.79-0.24,1.23-0.46v2.16c-0.44,0.24-0.9,0.42-1.39,0.54c-0.49,0.12-1.04,0.18-1.65,0.18c-0.68,0-1.31-0.09-1.9-0.26
			c-0.59-0.17-1.1-0.45-1.52-0.84c-0.43-0.38-0.76-0.88-1-1.49c-0.24-0.61-0.36-1.34-0.36-2.19v-10.22h-2.36v-2.23h2.36v-5.11h2.52
			v5.11h5.37v2.23h-5.37V350.88z"/>
		<path class="st1" d="M184.21,355.69v-3.41c-0.35,0.5-0.74,0.98-1.16,1.44c-0.43,0.46-0.9,0.86-1.42,1.21
			c-0.52,0.35-1.11,0.62-1.75,0.82c-0.64,0.2-1.36,0.3-2.15,0.3c-1.03,0-2.02-0.2-2.98-0.59c-0.96-0.39-1.82-0.97-2.59-1.72
			c-0.76-0.75-1.38-1.68-1.83-2.77c-0.46-1.09-0.69-2.34-0.69-3.73c0-1.4,0.23-2.64,0.69-3.73c0.46-1.09,1.07-2.02,1.83-2.77
			c0.76-0.75,1.63-1.33,2.59-1.74c0.96-0.4,1.95-0.61,2.98-0.61c0.79,0,1.51,0.1,2.16,0.29c0.65,0.2,1.24,0.46,1.77,0.79
			c0.52,0.33,1,0.71,1.42,1.15s0.8,0.9,1.13,1.38v-10.22h2.52v23.92H184.21z M183.8,344.53c-0.34-0.8-0.8-1.49-1.38-2.05
			c-0.58-0.56-1.23-1-1.97-1.32c-0.73-0.32-1.49-0.47-2.28-0.47c-0.83,0-1.61,0.15-2.33,0.44c-0.72,0.29-1.35,0.72-1.88,1.27
			c-0.54,0.55-0.96,1.24-1.28,2.05c-0.32,0.81-0.48,1.73-0.48,2.75c0,1,0.16,1.9,0.48,2.71c0.32,0.8,0.75,1.5,1.29,2.07
			c0.55,0.58,1.18,1.02,1.9,1.32c0.72,0.3,1.49,0.46,2.29,0.46c0.79,0,1.54-0.16,2.28-0.47c0.73-0.32,1.39-0.75,1.97-1.32
			c0.58-0.56,1.04-1.26,1.38-2.07c0.34-0.81,0.51-1.71,0.51-2.69C184.3,346.23,184.13,345.34,183.8,344.53z"/>
		<path class="st1" d="M195.14,335.05v-2.78h2.88v2.78H195.14z M195.3,355.69v-16.94h2.52v16.94H195.3z"/>
		<path class="st1" d="M218.3,353.09c-0.32,0.62-0.74,1.15-1.28,1.59c-0.54,0.44-1.17,0.77-1.9,1c-0.73,0.23-1.52,0.34-2.37,0.34
			c-1.22,0-2.46-0.22-3.7-0.67c-1.25-0.45-2.35-1.05-3.31-1.82l1.28-1.8c0.92,0.7,1.87,1.23,2.87,1.61c0.99,0.37,1.99,0.56,3,0.56
			c1.03,0,1.87-0.24,2.52-0.72c0.66-0.48,0.98-1.14,0.98-1.97v-0.07c0-0.41-0.11-0.78-0.34-1.08c-0.23-0.31-0.54-0.57-0.93-0.8
			c-0.39-0.23-0.85-0.43-1.36-0.61c-0.51-0.17-1.04-0.34-1.59-0.49c-0.66-0.2-1.32-0.41-1.98-0.64c-0.67-0.23-1.27-0.52-1.8-0.87
			c-0.54-0.35-0.97-0.79-1.31-1.31c-0.34-0.52-0.51-1.18-0.51-1.97v-0.07c0-0.72,0.14-1.38,0.43-1.98c0.28-0.6,0.68-1.11,1.2-1.54
			c0.51-0.43,1.12-0.75,1.83-0.98c0.71-0.23,1.48-0.34,2.31-0.34c1.05,0,2.11,0.17,3.18,0.51c1.07,0.34,2.04,0.79,2.92,1.36
			l-1.15,1.9c-0.79-0.5-1.61-0.9-2.47-1.2c-0.86-0.3-1.71-0.44-2.54-0.44c-1,0-1.8,0.24-2.39,0.71c-0.59,0.47-0.88,1.05-0.88,1.75
			v0.07c0,0.39,0.12,0.74,0.36,1.03c0.24,0.3,0.56,0.55,0.97,0.77c0.4,0.22,0.87,0.41,1.39,0.59c0.52,0.17,1.07,0.35,1.64,0.52
			c0.66,0.2,1.3,0.41,1.95,0.65c0.64,0.24,1.23,0.55,1.75,0.92c0.52,0.37,0.94,0.82,1.26,1.34c0.32,0.52,0.47,1.17,0.47,1.93v0.07
			C218.77,351.75,218.61,352.47,218.3,353.09z"/>
		<path class="st1" d="M228.63,350.6c0.35,0.71,0.8,1.31,1.34,1.8c0.55,0.49,1.16,0.86,1.83,1.11c0.68,0.25,1.39,0.38,2.13,0.38
			c1.18,0,2.19-0.22,3.03-0.66c0.84-0.44,1.61-1.02,2.31-1.74l1.57,1.41c-0.85,0.96-1.82,1.73-2.92,2.31
			c-1.09,0.58-2.45,0.87-4.06,0.87c-1.16,0-2.25-0.21-3.28-0.64c-1.03-0.43-1.92-1.03-2.69-1.8c-0.77-0.78-1.38-1.71-1.83-2.8
			c-0.45-1.09-0.68-2.29-0.68-3.6c0-1.22,0.2-2.37,0.61-3.46c0.4-1.08,0.97-2.02,1.69-2.82c0.72-0.8,1.58-1.43,2.57-1.88
			c0.99-0.46,2.08-0.69,3.26-0.69c1.24,0,2.36,0.23,3.34,0.7c0.98,0.47,1.81,1.11,2.49,1.92c0.68,0.81,1.19,1.76,1.54,2.85
			c0.35,1.09,0.52,2.26,0.52,3.51c0,0.11,0,0.23,0,0.36c0,0.13-0.01,0.27-0.03,0.43h-13.4C228.06,349.07,228.28,349.89,228.63,350.6
			z M238.81,346.29c-0.07-0.76-0.22-1.5-0.47-2.2c-0.25-0.7-0.6-1.31-1.04-1.83c-0.45-0.52-0.99-0.94-1.63-1.26
			c-0.64-0.32-1.38-0.47-2.23-0.47c-0.74,0-1.42,0.15-2.05,0.44c-0.63,0.29-1.18,0.7-1.66,1.21s-0.87,1.12-1.17,1.82
			c-0.3,0.7-0.5,1.46-0.59,2.29H238.81z"/>
		<path class="st1" d="M252.1,341.1c-0.82,0.23-1.62,0.53-2.41,0.9l-0.75-2.06c0.94-0.44,1.89-0.78,2.85-1.03
			c0.96-0.25,2.06-0.38,3.31-0.38c2.31,0,4.1,0.57,5.34,1.72c1.25,1.15,1.87,2.84,1.87,5.09v10.35h-2.42v-2.56
			c-0.59,0.77-1.38,1.44-2.38,2.03c-0.99,0.59-2.24,0.88-3.75,0.88c-0.79,0-1.56-0.11-2.31-0.33c-0.75-0.22-1.43-0.55-2.03-1
			c-0.6-0.45-1.08-1-1.44-1.65c-0.36-0.65-0.54-1.43-0.54-2.33s0.17-1.69,0.52-2.37c0.35-0.69,0.85-1.26,1.49-1.72
			c0.64-0.46,1.41-0.81,2.29-1.05c0.88-0.24,1.86-0.36,2.93-0.36c1.09,0,2.04,0.07,2.85,0.2c0.81,0.13,1.59,0.31,2.36,0.52v-0.59
			c0-1.53-0.44-2.68-1.33-3.46c-0.88-0.78-2.12-1.16-3.72-1.16C253.83,340.75,252.91,340.87,252.1,341.1z M251.29,348.06
			c-0.85,0.63-1.27,1.5-1.27,2.59c0,0.55,0.11,1.03,0.34,1.44c0.23,0.42,0.54,0.77,0.93,1.07c0.39,0.29,0.84,0.52,1.36,0.67
			c0.51,0.15,1.05,0.23,1.62,0.23c0.78,0,1.52-0.11,2.2-0.34c0.69-0.23,1.28-0.55,1.8-0.95c0.51-0.4,0.91-0.88,1.21-1.44
			c0.29-0.56,0.44-1.17,0.44-1.85v-1.64c-0.63-0.17-1.36-0.34-2.17-0.49c-0.82-0.15-1.75-0.23-2.79-0.23
			C253.36,347.11,252.14,347.43,251.29,348.06z"/>
		<path class="st1" d="M282.1,353.09c-0.32,0.62-0.74,1.15-1.28,1.59c-0.54,0.44-1.17,0.77-1.9,1c-0.73,0.23-1.52,0.34-2.37,0.34
			c-1.22,0-2.46-0.22-3.7-0.67c-1.25-0.45-2.35-1.05-3.31-1.82l1.28-1.8c0.92,0.7,1.87,1.23,2.87,1.61c0.99,0.37,1.99,0.56,3,0.56
			c1.03,0,1.87-0.24,2.52-0.72c0.66-0.48,0.98-1.14,0.98-1.97v-0.07c0-0.41-0.11-0.78-0.34-1.08c-0.23-0.31-0.54-0.57-0.93-0.8
			c-0.39-0.23-0.85-0.43-1.36-0.61c-0.51-0.17-1.04-0.34-1.59-0.49c-0.66-0.2-1.32-0.41-1.98-0.64c-0.67-0.23-1.27-0.52-1.8-0.87
			c-0.54-0.35-0.97-0.79-1.31-1.31c-0.34-0.52-0.51-1.18-0.51-1.97v-0.07c0-0.72,0.14-1.38,0.43-1.98c0.28-0.6,0.68-1.11,1.2-1.54
			c0.51-0.43,1.12-0.75,1.83-0.98c0.71-0.23,1.48-0.34,2.31-0.34c1.05,0,2.11,0.17,3.18,0.51c1.07,0.34,2.04,0.79,2.92,1.36
			l-1.15,1.9c-0.79-0.5-1.61-0.9-2.47-1.2c-0.86-0.3-1.71-0.44-2.54-0.44c-1,0-1.8,0.24-2.39,0.71c-0.59,0.47-0.88,1.05-0.88,1.75
			v0.07c0,0.39,0.12,0.74,0.36,1.03c0.24,0.3,0.56,0.55,0.97,0.77c0.4,0.22,0.87,0.41,1.39,0.59c0.52,0.17,1.07,0.35,1.64,0.52
			c0.66,0.2,1.3,0.41,1.95,0.65c0.64,0.24,1.23,0.55,1.75,0.92s0.94,0.82,1.26,1.34c0.32,0.52,0.47,1.17,0.47,1.93v0.07
			C282.58,351.75,282.42,352.47,282.1,353.09z"/>
		<path class="st1" d="M292.26,350.6c0.35,0.71,0.8,1.31,1.34,1.8c0.55,0.49,1.16,0.86,1.83,1.11c0.68,0.25,1.39,0.38,2.13,0.38
			c1.18,0,2.19-0.22,3.03-0.66c0.84-0.44,1.61-1.02,2.31-1.74l1.57,1.41c-0.85,0.96-1.82,1.73-2.92,2.31
			c-1.09,0.58-2.45,0.87-4.06,0.87c-1.16,0-2.25-0.21-3.28-0.64c-1.03-0.43-1.92-1.03-2.69-1.8s-1.38-1.71-1.83-2.8
			c-0.45-1.09-0.68-2.29-0.68-3.6c0-1.22,0.2-2.37,0.61-3.46c0.4-1.08,0.97-2.02,1.69-2.82c0.72-0.8,1.58-1.43,2.57-1.88
			c0.99-0.46,2.08-0.69,3.26-0.69c1.24,0,2.36,0.23,3.34,0.7c0.98,0.47,1.81,1.11,2.49,1.92c0.68,0.81,1.19,1.76,1.54,2.85
			c0.35,1.09,0.52,2.26,0.52,3.51c0,0.11,0,0.23,0,0.36c0,0.13-0.01,0.27-0.03,0.43h-13.4C291.69,349.07,291.91,349.89,292.26,350.6
			z M302.45,346.29c-0.07-0.76-0.22-1.5-0.47-2.2c-0.25-0.7-0.6-1.31-1.04-1.83c-0.45-0.52-0.99-0.94-1.63-1.26
			c-0.64-0.32-1.38-0.47-2.23-0.47c-0.74,0-1.42,0.15-2.05,0.44c-0.63,0.29-1.18,0.7-1.66,1.21c-0.48,0.51-0.87,1.12-1.17,1.82
			c-0.3,0.7-0.5,1.46-0.59,2.29H302.45z"/>
		<path class="st3" d="M340.16,340.46c0.38-0.41,0.81-0.78,1.29-1.08c0.48-0.31,1.02-0.55,1.62-0.72s1.27-0.26,2.01-0.26
			c1.97,0,3.51,0.61,4.62,1.82c1.11,1.21,1.67,2.88,1.67,5v10.48h-2.52v-9.89c0-1.64-0.39-2.9-1.16-3.79
			c-0.78-0.88-1.85-1.33-3.23-1.33c-0.63,0-1.23,0.11-1.8,0.34c-0.57,0.23-1.07,0.57-1.49,1.02c-0.43,0.45-0.76,1-1.02,1.66
			c-0.25,0.65-0.38,1.4-0.38,2.23v9.76h-2.49v-9.96c0-1.59-0.39-2.83-1.16-3.72c-0.78-0.88-1.84-1.33-3.19-1.33
			c-0.68,0-1.3,0.13-1.87,0.39c-0.57,0.26-1.06,0.63-1.49,1.11c-0.43,0.48-0.76,1.04-1,1.69c-0.24,0.64-0.36,1.36-0.36,2.15v9.66
			h-2.52v-16.94h2.52v2.85c0.28-0.41,0.59-0.82,0.93-1.21c0.34-0.39,0.73-0.74,1.16-1.03s0.93-0.53,1.47-0.7
			c0.55-0.17,1.18-0.26,1.9-0.26c1.38,0,2.51,0.32,3.41,0.97c0.9,0.64,1.57,1.45,2.03,2.41
			C339.43,341.31,339.78,340.87,340.16,340.46z"/>
		<path class="st3" d="M362.27,350.6c0.35,0.71,0.8,1.31,1.34,1.8c0.55,0.49,1.16,0.86,1.83,1.11c0.68,0.25,1.39,0.38,2.13,0.38
			c1.18,0,2.19-0.22,3.03-0.66s1.61-1.02,2.31-1.74l1.57,1.41c-0.85,0.96-1.82,1.73-2.91,2.31c-1.09,0.58-2.45,0.87-4.06,0.87
			c-1.16,0-2.25-0.21-3.28-0.64c-1.03-0.43-1.92-1.03-2.69-1.8s-1.38-1.71-1.83-2.8c-0.45-1.09-0.68-2.29-0.68-3.6
			c0-1.22,0.2-2.37,0.61-3.46c0.4-1.08,0.97-2.02,1.69-2.82c0.72-0.8,1.58-1.43,2.57-1.88c0.99-0.46,2.08-0.69,3.26-0.69
			c1.24,0,2.36,0.23,3.34,0.7c0.98,0.47,1.81,1.11,2.49,1.92c0.68,0.81,1.19,1.76,1.54,2.85c0.35,1.09,0.52,2.26,0.52,3.51
			c0,0.11,0,0.23,0,0.36c0,0.13-0.01,0.27-0.03,0.43h-13.4C361.7,349.07,361.92,349.89,362.27,350.6z M372.46,346.29
			c-0.07-0.76-0.22-1.5-0.47-2.2c-0.25-0.7-0.6-1.31-1.04-1.83s-0.99-0.94-1.63-1.26c-0.64-0.32-1.38-0.47-2.23-0.47
			c-0.74,0-1.42,0.15-2.05,0.44c-0.63,0.29-1.18,0.7-1.66,1.21c-0.48,0.51-0.87,1.12-1.17,1.82c-0.3,0.7-0.5,1.46-0.59,2.29H372.46z
			"/>
		<path class="st3" d="M384.84,350.6c0.35,0.71,0.8,1.31,1.34,1.8c0.55,0.49,1.16,0.86,1.83,1.11c0.68,0.25,1.39,0.38,2.13,0.38
			c1.18,0,2.19-0.22,3.03-0.66c0.84-0.44,1.61-1.02,2.31-1.74l1.57,1.41c-0.85,0.96-1.82,1.73-2.92,2.31
			c-1.09,0.58-2.45,0.87-4.06,0.87c-1.16,0-2.25-0.21-3.28-0.64c-1.03-0.43-1.92-1.03-2.69-1.8c-0.77-0.78-1.38-1.71-1.83-2.8
			c-0.45-1.09-0.68-2.29-0.68-3.6c0-1.22,0.2-2.37,0.61-3.46c0.4-1.08,0.97-2.02,1.69-2.82c0.72-0.8,1.58-1.43,2.57-1.88
			c0.99-0.46,2.08-0.69,3.26-0.69c1.25,0,2.36,0.23,3.34,0.7c0.98,0.47,1.81,1.11,2.49,1.92c0.68,0.81,1.19,1.76,1.54,2.85
			c0.35,1.09,0.52,2.26,0.52,3.51c0,0.11,0,0.23,0,0.36c0,0.13-0.01,0.27-0.03,0.43h-13.4C384.28,349.07,384.49,349.89,384.84,350.6
			z M395.03,346.29c-0.07-0.76-0.22-1.5-0.47-2.2c-0.25-0.7-0.6-1.31-1.04-1.83c-0.45-0.52-0.99-0.94-1.63-1.26
			c-0.64-0.32-1.38-0.47-2.23-0.47c-0.74,0-1.42,0.15-2.05,0.44c-0.63,0.29-1.18,0.7-1.66,1.21c-0.48,0.51-0.87,1.12-1.17,1.82
			c-0.3,0.7-0.5,1.46-0.59,2.29H395.03z"/>
		<path class="st3" d="M408.42,350.88c0,1.05,0.26,1.78,0.79,2.2c0.52,0.41,1.21,0.62,2.06,0.62c0.44,0,0.85-0.04,1.23-0.13
			c0.38-0.09,0.79-0.24,1.23-0.46v2.16c-0.44,0.24-0.9,0.42-1.39,0.54c-0.49,0.12-1.04,0.18-1.65,0.18c-0.68,0-1.31-0.09-1.9-0.26
			c-0.59-0.17-1.1-0.45-1.52-0.84c-0.43-0.38-0.76-0.88-1-1.49c-0.24-0.61-0.36-1.34-0.36-2.19v-10.22h-2.36v-2.23h2.36v-5.11h2.52
			v5.11h5.37v2.23h-5.37V350.88z"/>
	</g>
</g>
<g>
	<g>
		<rect x="53.4" y="267.71" class="st4" width="392.29" height="1.26"/>
	</g>
</g>
</svg>
