<svg width="687" height="132" viewBox="0 0 687 132" fill="none" xmlns="http://www.w3.org/2000/svg">
<g clip-path="url(#clip0)">
<path d="M44.9632 57.6485C44.9632 56.9304 45.7148 56.3616 47.2181 55.9423C48.7758 55.5167 50.3847 55.3054 52 55.3141C53.1235 55.2921 54.2452 55.4128 55.338 55.6731C56.2398 55.9142 56.5707 56.3332 56.3307 56.9304C55.487 61.7209 54.6151 66.9589 53.715 72.6443C52.8149 78.3297 51.9419 84.1067 51.096 89.9753C50.2534 95.8434 49.5618 101.62 49.0211 107.306C48.4803 112.992 48.2094 118.29 48.2083 123.2C48.2083 124.519 47.4266 125.477 45.863 126.073C44.3094 126.671 42.6574 126.976 40.9916 126.973C40.0475 126.992 39.1058 126.871 38.1975 126.614C37.8744 126.556 37.5748 126.406 37.3348 126.183C37.0947 125.96 36.9244 125.673 36.8441 125.356C36.4937 121.213 35.5835 117.135 34.138 113.233C32.6846 109.327 30.7448 105.617 28.3642 102.191C28.2432 103.03 27.9418 104.526 27.4603 106.681C26.9013 109.092 26.1781 111.462 25.2957 113.775C24.3113 116.39 23.0406 118.889 21.5066 121.227C19.9934 123.574 17.9558 125.541 15.5528 126.974C15.0713 127.334 13.8685 127.514 11.9444 127.514C10.3173 127.504 8.70268 127.23 7.16338 126.705C6.43956 126.506 5.76705 126.155 5.19121 125.675C4.61538 125.195 4.14963 124.598 3.82536 123.924C2.66218 120.354 2.02416 116.634 1.93117 112.882C1.73508 108.815 2.06876 104.741 2.92387 100.759C3.63818 97.2263 5.04864 93.8691 7.0738 90.8817C7.90335 89.5894 9.05244 88.531 10.4109 87.8077C11.7694 87.0844 13.2918 86.7205 14.8321 86.7509C16.313 86.8301 17.7731 87.1335 19.1621 87.6507V74.3514C19.1621 71.1188 18.8607 68.844 18.2581 67.5271C18.1365 67.4093 17.8656 67.6787 17.4454 68.3352C17.0252 68.9918 16.4839 69.8 15.8216 70.7597C15.0733 71.8263 14.2599 72.846 13.3858 73.8132C12.356 74.9501 11.2066 75.9737 9.95739 76.8666C8.94988 77.5617 7.75483 77.9375 6.52897 77.9447C4.60384 77.9447 3.34106 77.3449 2.74062 76.1452C1.18073 73.4537 0.255159 70.4449 0.033706 67.3455C-0.0697659 64.2817 0.111518 61.2149 0.57525 58.1843C0.57525 57.8255 0.906156 57.5861 1.56795 57.4661C2.37309 57.336 3.18808 57.2761 4.00367 57.287C4.9646 57.287 5.86662 57.317 6.70976 57.377C7.28475 57.3552 7.85229 57.5122 8.33359 57.826C8.54551 58.0183 8.71202 58.2548 8.82114 58.5187C8.93026 58.7826 8.9793 59.0673 8.96471 59.3524C9.0247 60.1327 9.0551 60.9687 9.0551 61.8668V64.4704C9.0045 65.092 9.12945 65.7152 9.41585 66.2699C10.8237 64.0859 12.3604 61.9869 14.0178 59.9838C14.6927 59.1293 15.5569 58.4416 16.5429 57.9744C17.5289 57.5072 18.6101 57.273 19.7019 57.2903C20.6182 57.249 21.5346 57.3706 22.408 57.6493C23.7983 58.3284 25.0255 59.2974 26.0062 60.4904C26.9869 61.6835 27.698 63.0727 28.0914 64.5636C29.112 67.8503 29.6293 71.2712 29.6257 74.7113C29.6257 75.911 29.5955 77.2579 29.5353 78.752C29.475 80.2462 29.415 81.7428 29.3553 83.2418C29.2939 84.7404 29.2339 86.1473 29.1753 87.4626C29.1129 88.7819 29.0849 89.9164 29.0849 90.8751C31.0798 92.0674 32.953 93.4506 34.6779 95.005C36.4168 96.631 38.0443 98.3711 39.5493 100.214C39.5493 96.9807 39.6995 93.5384 39.9997 89.887C40.2999 86.2356 40.7209 82.5548 41.2627 78.8445C41.804 75.1364 42.3754 71.4555 42.9769 67.8019C43.5785 64.1484 44.2406 60.7639 44.9632 57.6485ZM17.3583 99.6731C17.4766 98.5951 17.5662 97.49 17.6286 96.3506C17.6911 95.2111 17.2999 94.6451 16.456 94.6451C15.374 94.8861 14.4426 96.1731 13.6619 98.5059C12.8546 100.937 12.25 103.43 11.8541 105.959C11.4576 108.304 11.2466 110.675 11.2229 113.053C11.2229 115.149 11.4034 116.137 11.7645 116.016H12.1252C13.4472 116.016 14.4095 114.43 15.0121 111.257C15.6147 108.085 16.3968 104.223 17.3583 99.674V99.6731Z" fill="white"/>
<path d="M83.5756 56.5719C86.5398 60.8945 88.4545 65.8436 89.1686 71.0286C89.8913 76.3262 90.0123 81.688 89.5293 87.0125C89.0384 92.5271 88.2555 98.0121 87.184 103.445C86.1014 108.952 85.2594 114.34 84.6579 119.608C84.6227 119.969 84.5074 120.317 84.3202 120.629C84.133 120.94 83.8787 121.206 83.5756 121.407C82.7873 122.051 81.9414 122.622 81.0486 123.113C80.0716 123.657 79.0447 124.109 77.9818 124.46C76.9949 124.802 75.9592 124.984 74.9142 124.999C73.1095 124.999 72.2072 124.28 72.2072 122.844C73.0476 117.577 73.9499 112.578 74.9142 107.848C75.8784 103.117 76.6601 98.4777 77.2595 93.9292C77.8593 89.4045 78.1315 84.8426 78.0738 80.279C77.9877 75.5526 77.3518 70.8521 76.1789 66.2714C73.5743 68.9525 71.4397 72.0491 69.8636 75.4326C68.2242 78.6949 66.9534 82.1282 66.0744 85.6694C65.6764 86.001 65.2167 86.2512 64.7214 86.4056C64.2262 86.56 63.7052 86.6156 63.1883 86.5692C61.8437 86.5649 60.5175 86.2573 59.3095 85.6694C58.0462 85.0696 57.4748 84.2914 57.5953 83.3349C58.1718 78.3854 59.6388 73.5795 61.9261 69.1473C64.2251 64.7021 67.6442 60.9273 71.8489 58.1923C72.864 57.4786 73.953 56.8753 75.0974 56.3928C76.6222 55.6825 78.2853 55.3144 79.9689 55.3147C80.624 55.2728 81.2809 55.3625 81.9006 55.5785C82.5202 55.7945 83.0898 56.1323 83.5756 56.5719Z" fill="white"/>
<path d="M143.296 61.0611C144.301 64.8435 144.846 68.7324 144.92 72.6443C145.038 76.8977 144.978 80.9984 144.74 84.9465C144.258 91.054 143.566 97.1614 142.665 103.269C141.764 109.376 140.591 115.483 139.146 121.587C138.903 122.906 137.701 124.044 135.538 125C133.734 125.872 131.768 126.361 129.764 126.436C129.15 126.454 128.538 126.362 127.956 126.166C127.474 125.987 127.353 125.599 127.595 125C128.557 120.571 129.488 116.052 130.389 111.44C131.291 106.829 132.072 102.19 132.735 97.5219C133.392 92.8798 133.754 88.201 133.817 83.5134C133.88 78.884 133.548 74.2576 132.825 69.6841C132.704 68.9659 132.403 68.6068 131.921 68.6068C131.56 68.6068 131.019 68.9659 130.297 69.6841C129.576 70.4023 128.794 71.1507 127.952 71.9294C127.09 72.7245 126.187 73.474 125.246 74.1747C124.429 74.8396 123.414 75.2181 122.359 75.252C121.859 75.1161 121.393 74.8788 120.989 74.5551C120.585 74.2313 120.253 73.8281 120.014 73.3706C119.422 72.3768 118.939 71.3234 118.571 70.228C118.21 69.1505 117.909 68.1627 117.667 67.2645C117.42 66.3648 117.125 65.9173 116.763 65.9173C113.849 69.039 111.581 72.7 110.086 76.6924C114.295 76.6924 117.483 77.6802 119.649 79.6559C121.815 81.6316 123.319 84.7145 124.159 88.9046C124.799 91.9007 125.281 94.9281 125.603 97.9742C125.962 101.224 126.053 104.498 125.874 107.762C125.728 110.803 125.217 113.816 124.351 116.736C123.646 119.263 122.276 121.557 120.382 123.381C118.748 124.742 116.924 125.861 114.969 126.704C113.042 127.576 110.951 128.035 108.834 128.051C106.512 128.113 104.233 127.42 102.342 126.075C100.11 124.58 98.2317 122.619 96.8365 120.328C95.4392 118.024 94.4331 115.505 93.8584 112.875C93.2448 110.074 92.9722 107.21 93.0465 104.345C93.1076 101.336 93.3789 98.3358 93.8584 95.3649C95.1115 88.8466 97.0156 82.4691 99.5425 76.3276C101.912 70.2945 105.648 64.8865 110.458 60.5237C111.932 59.2413 113.5 58.0706 115.149 57.0212C116.786 55.8583 118.732 55.2024 120.742 55.1357C121.863 55.1075 122.955 55.4913 123.809 56.2138C124.049 56.3341 124.288 56.7529 124.531 57.471C124.783 58.2373 124.993 59.0166 125.16 59.8055C125.341 60.6442 125.521 61.4523 125.702 62.23C125.882 63.0103 126.031 63.5771 126.152 63.9354C127.235 62.7401 128.107 61.7525 128.768 60.9727C129.429 60.1929 130.091 59.4445 130.753 58.7274C131.145 58.2493 131.6 57.8263 132.106 57.4702C133.668 56.281 135.555 55.5922 137.519 55.4948C138.747 55.5052 139.93 55.951 140.857 56.752C142.074 57.9212 142.922 59.4189 143.296 61.0611ZM113.525 93.3879C113.378 92.2991 113.167 91.2197 112.894 90.1553C112.593 88.9594 112.262 87.8519 111.902 86.8327C111.602 85.9395 111.177 85.0929 110.639 84.3183C110.47 84.0344 110.233 83.796 109.95 83.6238C109.667 83.4516 109.346 83.3508 109.015 83.3302C108.779 83.3293 108.544 83.3767 108.327 83.4696C108.11 83.5624 107.914 83.6987 107.752 83.8701C107.057 86.2525 106.544 88.6839 106.218 91.1434C105.916 93.4962 105.765 95.8657 105.767 98.2376C105.777 100.549 105.927 102.858 106.218 105.151C106.517 107.605 106.908 109.91 107.39 112.066C107.772 113.916 108.346 115.722 109.105 117.453C109.762 118.891 110.454 119.609 111.18 119.609C111.906 119.608 112.507 119.069 112.983 117.992C114.528 114.272 115.176 110.244 114.878 106.229C114.576 102.218 114.126 97.938 113.526 93.3879H113.525Z" fill="white"/>
<path d="M159.174 124.817C159.242 124.993 159.27 125.183 159.255 125.371C159.24 125.56 159.183 125.742 159.088 125.906C158.992 126.07 158.862 126.21 158.705 126.317C158.548 126.424 158.369 126.494 158.182 126.523C157.1 126.848 155.973 126.999 154.844 126.971C153.906 126.973 152.97 126.883 152.05 126.702C151.398 126.651 150.788 126.364 150.335 125.894C148.892 124.098 148.05 121.614 147.809 118.441C147.571 115.117 147.662 111.779 148.08 108.473C148.486 105.074 149.149 101.711 150.064 98.412C150.736 95.8333 151.611 93.3113 152.681 90.8695C153.16 89.6737 153.611 88.6558 154.034 87.8161L155.207 85.4816C155.568 84.7634 155.958 83.9853 156.379 83.1471C156.799 82.309 157.25 81.3512 157.732 80.2736C157.732 80.1558 157.34 79.7354 156.56 79.0172C155.779 78.2991 154.874 77.4631 153.853 76.5028C152.855 75.5735 151.949 74.551 151.146 73.4493C150.466 72.6353 150.057 71.6313 149.975 70.5758C149.975 68.0588 150.628 65.5845 151.869 63.3916C153.13 61.1198 154.85 59.1327 156.921 57.5554C159.033 55.9354 161.374 54.6345 163.868 53.6946C166.224 52.7698 168.731 52.283 171.263 52.2583C175.034 52.2979 178.743 53.2207 182.089 54.9519C184.447 56.1078 186.42 57.916 187.772 60.1599C189.181 62.501 190.216 65.0458 190.84 67.7031C191.501 70.4704 191.864 73.2999 191.923 76.1437C191.988 78.8405 191.897 81.5388 191.652 84.2252C191.409 90.9325 190.928 97.2783 190.208 103.263C189.489 109.247 188.827 115.473 188.224 121.94C187.982 123.618 186.869 125.084 184.886 126.34C183.325 127.453 181.48 128.106 179.563 128.225C177.877 128.225 177.035 127.447 177.037 125.891C177.277 121.94 177.668 118.019 178.21 114.128C178.752 110.236 179.233 106.345 179.654 102.454C180.073 98.5644 180.434 94.6731 180.737 90.7796C181.035 86.9252 181.066 83.0549 180.827 79.1964C180.585 76.2053 180.254 73.5115 179.835 71.1149C179.416 68.7182 178.063 66.3235 175.775 63.9307C175.201 63.3907 174.599 62.8812 173.971 62.4044C173.033 61.7165 171.888 61.3679 170.724 61.4162C169.509 61.4911 168.332 61.8613 167.295 62.4943C166.378 62.9438 165.527 63.518 164.769 64.2006C164.091 64.7877 163.617 65.5734 163.415 66.4451C163.274 67.5046 163.497 68.5806 164.047 69.4986C164.998 71.1265 166.218 72.5835 167.655 73.8084C167.895 74.0494 168.256 74.4685 168.737 75.0656C169.219 75.6627 169.279 76.6206 168.918 77.9391C167.713 81.5311 166.36 85.1828 164.859 88.8942C163.337 92.6547 162.012 96.4912 160.889 100.388C159.749 104.321 158.964 108.348 158.544 112.42C158.124 116.561 158.336 120.74 159.174 124.817Z" fill="white"/>
<path d="M214.205 93.2079C215.165 95.7223 216.308 98.4761 217.633 101.469C218.923 104.374 219.978 107.377 220.789 110.449C221.549 113.226 221.854 116.106 221.693 118.98C221.561 121.564 220.505 124.016 218.716 125.894C218.144 126.65 217.427 127.286 216.606 127.763C215.786 128.241 214.877 128.551 213.935 128.675C212.054 128.965 210.154 129.115 208.25 129.124C206.74 128.938 205.291 128.417 204.011 127.598C202.481 126.681 201.059 125.596 199.771 124.365C198.485 123.152 197.308 121.83 196.253 120.413C195.375 119.3 194.675 118.058 194.178 116.733C194.089 116.097 194.251 115.453 194.628 114.933C195.065 114.196 195.613 113.529 196.253 112.958C196.93 112.348 197.689 111.835 198.508 111.431C199.099 111.063 199.799 110.905 200.492 110.982C201.815 112.419 203.108 113.796 204.371 115.113C205.634 116.43 206.747 117.149 207.709 117.268C208.792 117.388 209.634 116.49 210.236 114.574C210.597 112.899 209.695 109.127 207.529 103.26C206.189 99.9976 204.652 96.8189 202.927 93.7412C201.182 90.6291 199.528 87.5462 197.966 84.4924C196.408 81.4546 195.168 78.2648 194.268 74.9738C193.362 71.609 193.148 68.097 193.637 64.6478C193.78 63.2638 194.226 61.9278 194.943 60.7333C195.66 59.5389 196.63 58.5147 197.786 57.7327C200.089 56.2312 202.791 55.4495 205.544 55.4882C206.759 55.6962 207.941 56.0585 209.063 56.5663C210.229 57.1322 211.346 57.7941 212.402 58.5449C212.941 58.9624 213.426 59.4449 213.845 59.9813C214.325 60.5811 214.806 61.2096 215.289 61.8667C215.772 62.5238 216.223 63.1236 216.642 63.6662C217.063 64.205 217.453 64.4743 217.815 64.4743C218.897 63.1585 219.769 62.111 220.432 61.3317C221.072 60.5983 221.48 59.6923 221.604 58.7281C221.965 58.1283 222.747 57.8284 223.95 57.8284H224.853C225.967 57.9204 227.045 58.2577 228.012 58.8157C228.913 59.3544 229.244 59.9232 229.003 60.522C228.312 62.3995 227.498 64.2301 226.568 66.0023C225.545 67.978 224.733 69.4446 224.132 70.4022C223.442 71.7672 222.493 72.9867 221.338 73.9938C220.117 74.8948 218.616 75.3395 217.098 75.2502C214.572 75.1325 212.347 73.5761 210.422 70.5813C209.94 69.9814 209.128 69.0544 207.987 67.8002C206.845 66.546 206.033 65.619 205.551 65.0191C204.562 67.0237 204.306 69.3092 204.829 71.4811C205.349 74.1273 206.135 76.7147 207.176 79.2043C208.249 81.8219 209.484 84.3709 210.874 86.8367C212.25 89.2895 213.361 91.4132 214.205 93.2079Z" fill="white"/>
<path d="M287.097 104.342C287.097 111.287 285.563 116.915 282.495 121.224C279.427 125.534 274.044 127.988 266.346 128.586C261.295 128.586 257.145 127.868 253.897 126.431C250.823 125.137 248.191 122.985 246.319 120.235C244.429 117.323 243.169 114.05 242.621 110.627C241.932 106.593 241.6 102.506 241.629 98.4144C241.629 94.3453 241.779 90.2145 242.08 86.0222C242.38 81.8298 242.53 77.6991 242.531 73.63V68.6011C242.556 67.0571 242.248 65.5256 241.627 64.1105C240.96 64.8378 240.521 65.7429 240.363 66.7149C240.154 67.7792 239.723 68.7883 239.1 69.6776C238.998 69.8892 238.847 70.0733 238.658 70.2142C238.47 70.355 238.25 70.4485 238.018 70.4866C237.373 70.6718 236.704 70.7625 236.033 70.7557C234.75 70.7618 233.474 70.5805 232.244 70.2174C231.039 69.8581 230.558 69.4987 230.801 69.1394C231.401 67.2259 232.031 65.4896 232.691 63.9306C233.28 62.4897 234.103 61.155 235.127 59.9798C236.144 58.8641 237.411 58.0027 238.825 57.4654C240.646 56.8134 242.574 56.5082 244.508 56.5656C246.381 56.6105 248.162 57.3839 249.47 58.7201C250.746 60.0607 251.729 61.6506 252.357 63.3891C253.023 65.2123 253.447 67.1143 253.619 69.0469C253.8 71.0226 253.89 72.7286 253.89 74.165C253.769 77.3976 253.528 80.9892 253.169 84.94C252.807 88.8803 252.657 92.8369 252.717 96.7931C252.763 100.649 253.309 104.482 254.341 108.198C255.306 111.759 257.279 114.97 260.025 117.447C261.708 119.125 263.452 119.963 265.258 119.961C267.063 119.959 269.227 120.079 271.75 120.32C274.394 120.202 275.717 118.346 275.719 114.753C275.837 109.006 275.867 104.367 275.809 100.835C275.751 97.3027 275.721 94.3395 275.719 91.9451C275.719 89.5506 275.689 87.485 275.628 85.7482C275.568 84.0113 275.508 82.036 275.448 79.822C275.386 77.608 275.326 74.9439 275.268 71.8297C275.209 68.7154 275.179 64.5847 275.177 59.4375C275.205 59.1562 275.302 58.8861 275.46 58.6511C275.617 58.4162 275.831 58.2235 276.081 58.0903C276.761 57.6288 277.486 57.2377 278.246 56.923C279.143 56.5475 280.08 56.2764 281.04 56.1149C281.961 55.9444 282.896 55.8541 283.834 55.845C285.638 55.845 286.601 56.2643 286.721 57.103C286.961 59.7374 287.081 62.4912 287.081 65.3645V104.336L287.097 104.342Z" fill="white"/>
<path d="M351.511 89.9755C352.74 91.3904 353.644 93.0561 354.158 94.8556C354.673 96.6551 354.785 98.5449 354.488 100.392C353.913 104.44 352.565 108.341 350.518 111.885C348.461 115.534 345.878 118.862 342.85 121.764C339.842 124.637 337.075 126.553 334.55 127.511C334.037 127.732 333.486 127.854 332.926 127.87H331.483C328.836 127.87 326.941 126.852 325.799 124.817C324.589 122.564 323.852 120.089 323.635 117.543C323.332 114.679 323.302 111.793 323.545 108.923C323.784 105.99 323.964 103.625 324.086 101.829C323.003 102.428 321.68 103.775 320.117 105.869C318.553 107.963 317.019 110.208 315.515 112.604C314.009 115.003 312.655 117.308 311.454 119.519C310.253 121.729 309.472 123.196 309.109 123.919C308.988 124.16 308.506 124.339 307.666 124.458C306.769 124.581 305.864 124.641 304.959 124.637C303.682 124.643 302.41 124.492 301.17 124.188C299.965 123.89 299.423 123.441 299.546 122.84C299.906 119.249 300.387 115.327 300.989 111.077C301.591 106.827 302.162 102.546 302.702 98.2353C303.244 93.9246 303.755 89.6742 304.237 85.484C304.698 81.6093 304.939 77.7118 304.958 73.81C305.045 71.6112 304.863 69.41 304.417 67.2548C304.056 65.9979 303.575 65.3694 302.974 65.3694C302.372 65.3694 301.65 65.9379 300.808 67.0749C299.823 68.4898 299.034 70.0306 298.463 71.6555C297.779 71.5844 297.127 71.3368 296.569 70.9373C295.75 70.4295 295.018 69.7928 294.404 69.0519C293.766 68.312 293.221 67.4979 292.78 66.6275C292.584 66.3413 292.458 66.014 292.412 65.6713C292.365 65.3285 292.399 64.9797 292.51 64.6521C293.195 63.4582 294.012 62.3438 294.945 61.3295C295.999 60.1625 297.145 59.0815 298.373 58.0969C299.603 57.1007 300.971 56.2843 302.433 55.6724C303.683 55.1159 305.032 54.8102 306.401 54.7727C307.466 54.7696 308.517 55.0156 309.469 55.4908C310.54 56.0923 311.368 57.044 311.814 58.1844C312.867 60.1621 313.511 62.3299 313.708 64.5596C314.018 67.3026 314.168 70.0609 314.16 72.8211C314.158 75.76 314.008 78.697 313.708 81.6208C313.407 84.5556 313.167 87.1897 312.987 89.5231C312.807 91.8565 312.717 93.7722 312.716 95.2701C312.716 96.7687 312.956 97.5155 313.438 97.5155C315.293 95.9758 317.252 94.5656 319.301 93.2948C321.164 92.1578 322.938 91.17 324.624 90.3313C325.227 84.5842 325.798 78.8072 326.338 73.0002C326.854 67.3536 327.728 61.7451 328.955 56.2082C329.316 55.2512 330.518 54.443 332.563 53.7838C334.306 53.1791 336.131 52.8458 337.976 52.7957C339.419 52.7957 340.141 53.0956 340.141 53.6954C339.419 59.0825 338.817 64.5002 338.334 69.9484C337.85 75.3966 337.309 81.1736 336.71 87.2794C338.683 86.5939 340.754 86.2299 342.844 86.2014C344.471 86.2086 346.079 86.5471 347.57 87.1962C349.06 87.8452 350.401 88.7911 351.511 89.9755ZM335.815 115.837C336.536 115.837 337.348 115.209 338.251 113.952C339.277 112.451 340.096 110.82 340.686 109.103C341.429 107.039 341.942 104.902 342.219 102.728C342.524 100.701 342.494 98.6383 342.129 96.6214C341.769 95.4264 341.286 94.8219 340.686 94.8219C339.843 94.8219 338.94 95.6301 337.979 97.2464C337.099 98.6696 336.43 100.213 335.995 101.827C335.874 102.307 335.723 103.234 335.544 104.608C335.364 105.982 335.214 107.389 335.093 108.829C334.973 110.202 334.943 111.582 335.003 112.959C334.969 113.978 335.252 114.983 335.813 115.837H335.815Z" fill="white"/>
<path d="M406.901 0.178973C407.171 0.216728 407.424 0.329738 407.632 0.504906C407.839 0.680074 407.993 0.91023 408.075 1.16871C408.434 2.27806 408.434 3.47191 408.075 4.58126C408.028 4.79833 407.929 5.00115 407.788 5.17296C407.647 5.34477 407.466 5.48065 407.262 5.56936C404.465 6.66016 401.752 7.95045 399.142 9.43016C396.594 10.8874 393.865 12.0045 391.024 12.7527C389.709 13.2054 388.347 13.5073 386.964 13.6525C385.7 13.7725 384.468 13.8322 383.266 13.8316C380.314 13.8535 377.372 13.491 374.515 12.7536C371.237 11.9702 367.872 11.6079 364.501 11.6755H362.697C359.917 11.7331 357.157 12.1559 354.488 12.9327C353.346 13.2918 352.714 13.623 352.593 13.9208C352.472 14.2185 353.255 14.4312 354.938 14.549C356.621 14.6668 358.034 14.7281 359.178 14.7281H363.419C366.305 14.9692 368.53 15.837 370.094 17.3317C371.827 19.0742 373.233 21.1118 374.244 23.3478C375.307 27.3588 375.763 31.5052 375.597 35.65C375.416 39.663 375.206 43.7634 374.965 47.9514C374.844 49.6299 374.634 52.354 374.334 56.1237C374.035 59.8935 373.733 64.1741 373.43 68.9658C373.129 73.7563 372.828 78.7852 372.526 84.0523C372.225 89.3195 371.985 94.2581 371.805 98.8681C371.625 103.479 371.565 107.49 371.625 110.901C371.57 113.222 371.782 115.542 372.256 117.815C372.466 117.962 372.723 118.026 372.978 117.995C373.817 117.995 374.601 117.428 375.324 116.289C376.046 115.151 376.586 114.224 376.948 113.508C377.669 113.6 378.354 113.878 378.933 114.316C379.78 114.86 380.566 115.492 381.278 116.202C381.95 116.86 382.556 117.582 383.086 118.357C383.566 119.075 383.686 119.614 383.447 119.973C382.123 122.369 380.195 124.38 377.854 125.81C375.654 127.245 373.088 128.024 370.458 128.055C368.852 128.083 367.268 127.681 365.871 126.891C364.475 126.101 363.317 124.953 362.519 123.565C361.916 122.608 361.586 120.034 361.527 115.843C361.468 111.651 361.528 106.623 361.707 100.757C361.887 94.892 362.189 88.6359 362.611 81.9886C363.033 75.3413 363.454 69.0555 363.874 63.1312C364.294 57.2048 364.655 52.0565 364.957 47.6864C365.259 43.3163 365.409 40.5328 365.408 39.3358V33.1348C365.433 31.2601 365.221 29.3897 364.777 27.5677C364.419 26.0633 363.637 24.6922 362.521 23.6161C361.439 22.6002 359.755 22.0915 357.469 22.0898C356.563 22.0689 355.657 22.1289 354.762 22.2689C354.05 22.4112 353.324 22.4716 352.598 22.4489C350.4 22.5132 348.243 21.8501 346.464 20.5635C344.756 19.272 343.495 17.4828 342.856 15.4447C342.551 13.5537 343.005 11.6195 344.118 10.0575C345.265 8.56783 346.749 7.36795 348.449 6.55501C350.356 5.62517 352.394 4.98943 354.493 4.6696C356.67 4.31407 358.872 4.13381 361.078 4.13057H363.604C366.817 4.3841 370.011 4.83401 373.167 5.47775C376.373 6.13238 379.637 6.46316 382.91 6.46504H384.353C386.94 6.26477 389.489 5.72119 391.931 4.84874C394.378 3.93226 396.734 2.78976 398.968 1.43619C400.851 0.430007 402.967 -0.0653566 405.103 -0.000162982C405.708 -0.0254516 406.313 0.0348632 406.901 0.178973Z" fill="white"/>
<path d="M432.161 61.0611C433.167 64.8444 433.713 68.7345 433.787 72.6476C433.905 76.901 433.845 81.0017 433.607 84.9498C433.125 91.0572 432.433 97.1647 431.532 103.272C430.631 109.38 429.458 115.486 428.013 121.591C427.771 122.91 426.568 124.047 424.405 125.003C422.601 125.875 420.635 126.364 418.631 126.439C418.017 126.457 417.405 126.366 416.823 126.17C416.341 125.99 416.22 125.603 416.462 125.003C417.423 120.575 418.355 116.055 419.256 111.444C420.158 106.833 420.94 102.193 421.602 97.5252C422.259 92.8831 422.621 88.2042 422.684 83.5167C422.747 78.8873 422.415 74.2609 421.692 69.6873C421.571 68.9692 421.27 68.6101 420.788 68.6101C420.427 68.6101 419.886 68.9692 419.164 69.6873C418.443 70.4063 417.658 71.1556 416.819 71.9327C415.957 72.7277 415.054 73.4772 414.113 74.178C413.296 74.8429 412.281 75.2215 411.226 75.2552C410.726 75.1193 410.26 74.8821 409.856 74.5584C409.452 74.2346 409.12 73.8314 408.881 73.3739C408.289 72.3801 407.806 71.3267 407.438 70.2313C407.077 69.1538 406.776 68.1659 406.534 67.2678C406.287 66.368 405.992 65.9206 405.63 65.9206C402.716 69.0422 400.448 72.7033 398.953 76.6957C403.162 76.6957 406.35 77.6835 408.516 79.6592C410.682 81.6348 412.186 84.7177 413.027 88.9079C413.666 91.904 414.148 94.9313 414.47 97.9775C414.829 101.227 414.92 104.501 414.741 107.765C414.594 110.805 414.082 113.817 413.216 116.736C412.511 119.263 411.141 121.557 409.246 123.381C407.612 124.742 405.789 125.861 403.833 126.704C401.906 127.576 399.816 128.035 397.699 128.051C395.377 128.113 393.097 127.42 391.207 126.075C388.975 124.579 387.096 122.618 385.701 120.328C384.304 118.023 383.298 115.505 382.724 112.875C382.11 110.074 381.838 107.21 381.912 104.345C381.973 101.336 382.244 98.3357 382.724 95.3649C383.977 88.8466 385.881 82.4691 388.408 76.3276C390.778 70.2945 394.513 64.8865 399.324 60.5237C400.797 59.2413 402.365 58.0705 404.014 57.0211C405.651 55.8583 407.597 55.2024 409.607 55.1357C410.728 55.1075 411.82 55.4913 412.675 56.2138C412.914 56.3341 413.153 56.7529 413.396 57.471C413.649 58.2372 413.86 59.0165 414.028 59.8055C414.208 60.6442 414.389 61.4523 414.57 62.2299C414.75 63.0103 414.899 63.5771 415.02 63.9354C416.103 62.7401 416.975 61.7525 417.637 60.9727C418.298 60.1929 418.96 59.4445 419.622 58.7274C420.014 58.2493 420.469 57.8263 420.975 57.4702C422.536 56.281 424.424 55.5921 426.388 55.4948C427.615 55.5052 428.799 55.951 429.726 56.752C430.942 57.9216 431.788 59.4193 432.161 61.0611ZM402.39 93.3879C402.243 92.299 402.033 91.2197 401.759 90.1553C401.458 88.9594 401.127 87.8519 400.767 86.8327C400.468 85.9393 400.042 85.0927 399.504 84.3183C399.334 84.0343 399.098 83.7957 398.815 83.6235C398.532 83.4513 398.211 83.3506 397.88 83.3302C397.643 83.3292 397.409 83.3767 397.192 83.4695C396.975 83.5624 396.779 83.6987 396.617 83.8701C395.921 86.2525 395.409 88.6839 395.082 91.1434C394.78 93.4962 394.63 95.8657 394.632 98.2376C394.641 100.549 394.792 102.858 395.082 105.151C395.382 107.605 395.772 109.91 396.255 112.066C396.636 113.916 397.211 115.722 397.969 117.453C398.627 118.891 399.319 119.609 400.045 119.609C400.771 119.608 401.373 119.069 401.849 117.992C403.393 114.272 404.042 110.244 403.743 106.229C403.441 102.218 402.99 97.938 402.39 93.3879Z" fill="white"/>
<path d="M432.341 20.8319C432.462 20.4726 433.244 20.2929 434.687 20.2929C435.779 20.2943 436.869 20.4147 437.935 20.652C439.017 20.8933 439.496 21.191 439.378 21.5517C438.84 27.2519 436.431 32.617 432.522 36.8174C428.795 40.8181 423.96 43.6303 418.628 44.8989H417.365C416.515 44.911 415.667 44.8204 414.839 44.629C414.118 44.4499 413.819 44.0621 413.935 43.4626C414.538 40.8304 415.23 37.9568 416.01 34.842C416.785 31.9118 416.938 28.8533 416.461 25.8608C416.038 26.4389 415.646 27.0396 415.289 27.6603C414.851 28.414 414.459 29.1936 414.116 29.9948C413.755 30.8335 413.394 31.5819 413.033 32.2401C412.672 32.8983 412.371 33.4071 412.129 33.7664C411.56 34.191 410.85 34.3837 410.144 34.3054C409.529 34.3227 408.918 34.2026 408.357 33.954C407.795 33.7054 407.296 33.3347 406.897 32.8691C406.056 31.9121 405.184 30.9851 404.28 30.088C403.376 29.191 402.445 28.2032 401.486 27.1245V26.7654C401.367 27.1245 401.246 27.455 401.126 27.7527C401.016 28.0087 400.955 28.2827 400.946 28.5609C400.044 31.1583 399.617 33.8952 399.683 36.6424C399.666 37.7436 399.85 38.8386 400.224 39.875C401.343 39.3678 402.241 38.4747 402.75 37.3605C403.661 37.3996 404.567 37.5198 405.457 37.7196C405.913 37.7592 406.357 37.8912 406.76 38.1074C407.163 38.3235 407.518 38.6194 407.802 38.9768C407.827 39.5465 407.726 40.1146 407.508 40.6418C407.29 41.169 406.96 41.6428 406.539 42.0303C405.47 43.1738 404.091 43.9846 402.569 44.3648C402.237 44.3629 401.904 44.393 401.578 44.4548C401.251 44.5182 400.919 44.5483 400.586 44.5447C398.93 44.5509 397.295 44.1825 395.804 43.4675C395.029 43.0652 394.368 42.4765 393.88 41.7552C393.392 41.0338 393.093 40.2025 393.01 39.3368C392.766 37.6994 392.766 36.0352 393.01 34.3979C393.262 32.2568 393.746 30.1492 394.454 28.1118C395.11 26.1409 396.085 24.2898 397.34 22.6314C397.82 21.925 398.465 21.3441 399.219 20.9378C399.972 20.5314 400.813 20.3116 401.67 20.297C402.218 20.2766 402.765 20.3369 403.294 20.4761C404.695 20.9931 405.874 21.9754 406.632 23.2572C407.554 24.6429 408.679 25.8836 409.97 26.938C410.814 25.5017 411.837 23.9151 413.038 22.1783C414.098 20.5645 415.601 19.2872 417.369 18.4975C418.038 18.1506 418.78 17.9657 419.534 17.9576C420.258 17.9313 420.971 18.1346 421.571 18.5382C422.171 18.9418 422.627 19.5247 422.872 20.2029C423.573 21.8828 423.941 23.6819 423.954 25.5009C424.016 27.5426 423.895 29.5857 423.594 31.6062C423.411 33.1317 423.079 34.6358 422.602 36.0968C425.189 34.5129 427.282 32.243 428.646 29.5416C429.788 27.0899 431.02 24.1867 432.341 20.8319Z" fill="white"/>
<path d="M443.532 68.4251C443.723 68.1424 443.977 67.9065 444.274 67.7354C444.57 67.5643 444.902 67.4623 445.244 67.437C447.427 67.0242 449.673 67.0853 451.83 67.6162C452.912 67.9161 453.273 68.3652 452.913 68.9634C452.431 69.6815 451.89 70.5797 451.289 71.6578C450.725 72.633 450.329 73.6952 450.116 74.8004C449.927 75.6977 449.989 76.6297 450.297 77.4939C450.466 77.8884 450.761 78.2164 451.136 78.4274C451.511 78.6384 451.945 78.7205 452.372 78.6612C452.98 78.6741 453.587 78.6139 454.18 78.482C455.802 78.0482 457.352 77.3829 458.782 76.5066C460.406 75.5496 461.999 74.5618 463.563 73.5432C465.127 72.5245 466.54 71.5975 467.803 70.7621C468.761 70.1065 469.755 69.5057 470.781 68.9625C471.55 68.9424 472.307 69.162 472.946 69.5907C473.552 70.0185 474.022 70.6108 474.299 71.297C474.597 72.006 474.69 72.7835 474.569 73.5423C474.424 74.3642 473.973 75.1015 473.307 75.6077C471.981 76.8074 470.418 78.1543 468.615 79.6485C464.994 82.6432 460.913 85.0382 456.527 86.7418C454.578 87.5368 452.498 87.9631 450.392 87.9991C448.793 88.0139 447.203 87.7401 445.702 87.1909C444.281 86.6694 443.033 85.7686 442.093 84.5873C441.059 83.4902 440.37 82.117 440.109 80.6357C439.866 79.209 439.866 77.7518 440.109 76.3251C440.353 74.8716 440.777 73.4539 441.371 72.1044C441.933 70.7925 442.659 69.5563 443.532 68.4251ZM443.532 95.0041C443.724 94.7215 443.977 94.4858 444.274 94.3148C444.571 94.1438 444.902 94.0419 445.244 94.0168C447.427 93.604 449.673 93.6651 451.83 94.196C452.912 94.4959 453.273 94.9449 452.913 95.5431C452.431 96.2613 451.89 97.1595 451.289 98.2375C450.725 99.2128 450.329 100.275 450.116 101.38C449.927 102.277 449.989 103.209 450.297 104.074C450.466 104.468 450.761 104.796 451.136 105.007C451.511 105.218 451.945 105.3 452.372 105.241C452.98 105.254 453.587 105.193 454.18 105.061C455.802 104.627 457.352 103.962 458.782 103.086C460.406 102.129 461.999 101.142 463.563 100.123C465.127 99.1043 466.54 98.1773 467.803 97.3419C468.76 96.686 469.754 96.0852 470.781 95.5423C471.55 95.5222 472.307 95.7418 472.946 96.1705C473.552 96.5982 474.022 97.1905 474.299 97.8768C474.597 98.5858 474.69 99.3633 474.569 100.122C474.424 100.944 473.973 101.681 473.307 102.187C471.981 103.387 470.418 104.734 468.615 106.228C466.805 107.731 464.874 109.082 462.841 110.269C460.823 111.454 458.711 112.476 456.527 113.322C454.578 114.117 452.498 114.544 450.392 114.58C448.793 114.594 447.204 114.32 445.702 113.772C444.281 113.25 443.033 112.349 442.093 111.167C441.06 110.07 440.37 108.697 440.109 107.216C439.866 105.79 439.866 104.333 440.109 102.906C440.353 101.453 440.777 100.035 441.371 98.6858C441.933 97.3731 442.659 96.1362 443.532 95.0041Z" fill="white"/>
<path d="M521.653 81.3549C523.334 86.7233 523.977 92.3602 523.548 97.967C523.13 103.633 521.758 109.188 519.488 114.4C518.529 116.367 517.283 118.183 515.79 119.787C514.12 121.622 512.208 123.223 510.107 124.547C507.959 125.916 505.658 127.032 503.25 127.869C500.933 128.691 498.493 129.116 496.033 129.127C492.699 129.138 489.447 128.101 486.74 126.163C483.913 124.187 481.838 120.685 480.515 115.657C479.442 111.647 479.197 107.463 479.794 103.356C480.323 99.5483 481.611 95.8845 483.583 92.5798C485.433 89.4844 487.961 86.8446 490.979 84.8574C493.914 82.9031 497.371 81.8707 500.903 81.8939H502.346C502.946 81.8939 503.487 82.3144 503.97 83.1511C504.456 84.0048 504.849 84.9078 505.142 85.8447C505.426 86.6826 505.548 87.5661 505.503 88.4491C505.441 89.2295 505.112 89.6164 504.511 89.6164H503.79C501.834 89.6245 499.912 90.1182 498.197 91.0527C496.389 92.0139 494.794 93.3268 493.506 94.9135C492.164 96.5619 491.153 98.4519 490.529 100.481C489.869 102.538 489.654 104.71 489.897 106.856C490.377 110.448 491.49 113.112 493.236 114.848C493.983 115.657 494.889 116.305 495.897 116.753C496.905 117.2 497.995 117.438 499.099 117.452C501.652 117.352 504.098 116.404 506.046 114.758C508.557 112.735 510.462 110.063 511.552 107.036C512.919 103.7 513.624 100.132 513.628 96.5298C513.691 92.6784 513.205 88.8376 512.183 85.1224C511.205 81.5188 509.717 78.072 507.763 74.8856C505.997 71.9408 503.593 69.4256 500.726 67.5239C499.46 66.6245 497.951 66.1242 496.396 66.0876C495.375 66.0939 494.372 66.3511 493.475 66.8362C492.578 67.3214 491.815 68.0195 491.254 68.8686C489.737 70.9835 488.551 73.315 487.735 75.7837C487.087 77.4111 485.869 78.7503 484.307 79.5546C482.97 80.4739 481.415 81.0309 479.796 81.1709C478.832 81.1709 478.353 80.8731 478.353 80.2711C478.181 76.9235 478.64 73.5734 479.707 70.3942C480.595 67.7482 482.006 65.3057 483.856 63.21C485.582 61.3072 487.708 59.8052 490.082 58.8101C492.418 57.8078 494.934 57.2885 497.478 57.2838C500.561 57.2433 503.603 57.9847 506.319 59.4383C508.967 60.8781 511.323 62.7965 513.265 65.0954C515.263 67.4523 516.96 70.0464 518.317 72.8186C519.671 75.5643 520.787 78.4201 521.653 81.3549Z" fill="white"/>
<path d="M553.409 56.572C556.373 60.8945 558.288 65.8436 559.002 71.0288C559.724 76.3263 559.845 81.6881 559.362 87.0126C558.872 92.5273 558.089 98.0123 557.017 103.445C555.935 108.952 555.093 114.34 554.491 119.608C554.456 119.969 554.341 120.318 554.153 120.629C553.966 120.94 553.712 121.206 553.409 121.407C552.621 122.051 551.775 122.622 550.882 123.113C549.905 123.658 548.878 124.109 547.815 124.46C546.828 124.802 545.792 124.984 544.747 124.999C542.943 124.999 542.041 124.28 542.041 122.844C542.881 117.577 543.783 112.578 544.747 107.848C545.711 103.117 546.493 98.4778 547.093 93.9293C547.691 89.4048 547.963 84.8432 547.905 80.2799C547.819 75.5535 547.183 70.853 546.009 66.2723C543.405 68.9536 541.271 72.0502 539.695 75.4335C538.056 78.696 536.785 82.1292 535.906 85.6703C535.508 86.0019 535.048 86.2521 534.553 86.4065C534.058 86.5609 533.537 86.6165 533.02 86.5701C531.675 86.5658 530.349 86.2582 529.141 85.6703C527.878 85.0705 527.307 84.2923 527.427 83.3359C528.003 78.3863 529.47 73.5805 531.757 69.1483C534.056 64.703 537.475 60.9281 541.68 58.1932C542.695 57.4795 543.784 56.8762 544.928 56.3937C546.453 55.6834 548.116 55.3154 549.8 55.3156C550.455 55.2733 551.112 55.3627 551.733 55.5786C552.353 55.7944 552.923 56.1323 553.409 56.572Z" fill="white"/>
<path d="M610.423 61.9584C610.816 63.5443 610.998 65.1744 610.965 66.8073C610.962 68.7582 610.842 70.7071 610.604 72.6435C610.362 74.6192 610.031 76.5348 609.612 78.3905C609.299 79.8957 608.846 81.3687 608.259 82.7904C607.177 85.4253 606.425 87.2521 606.004 88.2707C605.667 89.1372 605.212 89.9531 604.65 90.6952C603.918 91.5781 603.135 92.4176 602.305 93.2096C602.784 95.609 603.355 98.3028 604.018 101.291C604.682 104.279 605.373 107.333 606.093 110.452C606.815 113.567 607.507 116.621 608.169 119.614C608.831 122.606 609.402 125.3 609.883 127.695C610.123 128.89 609.431 129.908 607.808 130.749C606.455 131.511 604.94 131.942 603.387 132.006C602.062 132.006 601.22 131.646 600.861 130.928C599.997 129.041 599.389 127.048 599.053 125.001C598.572 122.487 598.091 119.913 597.61 117.278C597.13 114.644 596.739 112.13 596.438 109.736C596.231 107.86 595.9 106 595.445 104.169C593.641 108.002 591.567 112.073 589.221 116.381C586.875 120.689 584.559 124.58 582.274 128.054C581.93 128.345 581.568 128.616 581.191 128.863C580.588 129.281 579.928 129.73 579.206 130.21C578.474 130.692 577.687 131.084 576.861 131.378C576.169 131.646 575.438 131.797 574.696 131.826C573.613 131.826 573.071 131.227 573.071 130.03C573.071 123.447 573.222 116.832 573.523 110.186C573.823 103.539 573.974 96.6246 573.974 89.4429V84.6831C573.974 82.2293 573.944 79.5651 573.883 76.6908C573.823 73.8165 573.673 71.1524 573.432 68.6985C573.19 66.2446 572.889 64.778 572.528 64.2986C572.22 64.2606 571.908 64.2891 571.612 64.3821C571.316 64.4751 571.044 64.6305 570.814 64.8377C570.497 65.229 570.28 65.6914 570.183 66.1849C570.05 66.8065 569.959 67.4364 569.912 68.0703C569.86 68.7472 569.708 69.4129 569.461 70.0457C569.461 70.646 569.101 70.9454 568.378 70.9454C567.257 70.8984 566.168 70.5576 565.221 69.9573C564.077 69.3029 563.505 68.5548 563.508 67.7128C563.431 64.9385 564.36 62.2293 566.123 60.0796C567.016 59.0309 568.14 58.2017 569.407 57.6566C570.675 57.1115 572.052 56.8652 573.43 56.9369C575.532 56.8744 577.585 57.5767 579.204 58.9123C580.176 59.8631 580.836 61.084 581.098 62.4149C581.536 64.1248 581.838 65.866 582.002 67.6228C582.183 69.4807 582.273 71.3075 582.273 73.1032V77.4131C582.152 84.1204 582.062 90.1665 582.002 95.5514C581.943 100.936 581.913 106.623 581.912 112.613C582.994 110.098 584.167 107.494 585.43 104.801C586.693 102.108 587.926 99.6233 589.128 97.3477C590.329 95.0749 591.653 92.441 593.098 89.4462C591.837 88.0001 591.023 86.2227 590.753 84.3273C590.256 81.844 590.014 79.3169 590.03 76.7849C590.029 74.1045 590.27 71.4295 590.753 68.7925C591.151 66.469 591.756 64.1853 592.561 61.9682C593.099 60.4349 593.794 58.9605 594.635 57.5684C595.165 56.6502 595.927 55.8855 596.845 55.3499C597.762 54.8144 598.805 54.5266 599.868 54.5149C601.01 54.456 602.423 54.4261 604.108 54.425C604.849 54.4129 605.584 54.5687 606.255 54.8804C606.927 55.1921 607.519 55.6517 607.987 56.2245C609.079 58.0056 609.9 59.9379 610.423 61.9584ZM603.748 67.3464C603.691 66.3817 603.57 65.4219 603.387 64.4728C603.145 63.0365 602.664 62.3183 601.944 62.3183C599.941 64.2717 598.641 66.8282 598.246 69.5917C597.824 72.4066 597.553 74.951 597.434 77.2249C597.313 79.2622 597.553 80.6091 598.156 81.2657C598.759 81.9222 599.18 82.1919 599.419 82.0746C600.862 82.1952 601.885 80.8183 602.487 77.9439C603.162 74.4462 603.584 70.9045 603.748 67.3464Z" fill="white"/>
<path d="M643.081 56.572C646.046 60.8945 647.96 65.8436 648.674 71.0287C649.397 76.3263 649.518 81.6881 649.035 87.0126C648.544 92.5273 647.761 98.0123 646.69 103.445C645.607 108.952 644.765 114.34 644.163 119.608C644.128 119.969 644.012 120.318 643.825 120.629C643.638 120.94 643.384 121.206 643.08 121.407C642.292 122.051 641.447 122.622 640.554 123.113C639.577 123.658 638.55 124.109 637.487 124.46C636.5 124.802 635.465 124.984 634.42 124.999C632.615 124.999 631.712 124.281 631.713 122.844C632.553 117.577 633.456 112.578 634.42 107.848C635.384 103.117 636.166 98.4778 636.765 93.9293C637.364 89.4048 637.636 84.8432 637.578 80.2799C637.491 75.5536 636.856 70.8531 635.683 66.2723C633.079 68.9534 630.944 72.0501 629.368 75.4335C627.729 78.6957 626.458 82.129 625.579 85.6703C625.181 86.0017 624.721 86.2517 624.226 86.4061C623.73 86.5605 623.209 86.6162 622.692 86.5701C621.348 86.5658 620.022 86.2581 618.814 85.6703C617.551 85.0705 616.979 84.2923 617.099 83.3359C617.676 78.3863 619.143 73.5804 621.43 69.1482C623.729 64.703 627.149 60.9281 631.354 58.1932C632.369 57.4795 633.458 56.8762 634.602 56.3937C636.127 55.6834 637.79 55.3154 639.473 55.3156C640.128 55.2733 640.785 55.3628 641.405 55.5786C642.025 55.7945 642.595 56.1323 643.081 56.572Z" fill="white"/>
<path d="M672.129 93.2079C673.09 95.7223 674.233 98.4761 675.558 101.469C676.848 104.374 677.903 107.377 678.715 110.449C679.474 113.226 679.78 116.106 679.619 118.98C679.486 121.564 678.43 124.016 676.642 125.894C676.07 126.65 675.353 127.286 674.532 127.763C673.711 128.241 672.803 128.551 671.861 128.675C669.98 128.965 668.08 129.115 666.176 129.124C664.666 128.938 663.217 128.417 661.937 127.598C660.407 126.681 658.985 125.596 657.696 124.365C656.41 123.152 655.233 121.83 654.178 120.413C653.3 119.3 652.6 118.059 652.103 116.733C652.014 116.097 652.176 115.453 652.553 114.933C652.99 114.196 653.538 113.529 654.178 112.958C654.855 112.348 655.614 111.835 656.433 111.431C657.024 111.063 657.724 110.905 658.417 110.982C659.74 112.419 661.033 113.796 662.296 115.113C663.559 116.43 664.672 117.149 665.634 117.268C666.716 117.388 667.558 116.49 668.16 114.574C668.521 112.899 667.619 109.127 665.453 103.26C664.113 99.9976 662.576 96.8189 660.851 93.7412C659.106 90.6291 657.452 87.5462 655.889 84.4924C654.331 81.4546 653.092 78.2648 652.191 74.9738C651.285 71.6091 651.071 68.097 651.56 64.6478C651.704 63.2639 652.15 61.9279 652.866 60.7334C653.583 59.539 654.553 58.5148 655.709 57.7327C658.013 56.231 660.715 55.4494 663.469 55.4882C664.683 55.6962 665.865 56.0586 666.987 56.5663C668.152 57.1313 669.269 57.792 670.325 58.5417C670.863 58.9592 671.348 59.4416 671.768 59.978C672.248 60.5778 672.729 61.2063 673.211 61.8634C673.694 62.5205 674.145 63.1204 674.564 63.6629C674.984 64.2017 675.375 64.4711 675.737 64.4711C676.819 63.1553 677.691 62.1077 678.353 61.3285C678.994 60.5951 679.402 59.689 679.526 58.7249C679.887 58.125 680.669 57.8251 681.871 57.8251H682.775C683.888 57.9171 684.967 58.2544 685.932 58.8124C686.835 59.3512 687.166 59.9199 686.925 60.5187C686.233 62.3961 685.42 64.2268 684.489 65.9991C683.467 67.9747 682.655 69.4413 682.054 70.3989C681.363 71.7639 680.415 72.9835 679.26 73.9906C678.038 74.8915 676.538 75.3363 675.02 75.247C672.494 75.1292 670.269 73.5729 668.344 70.578C667.862 69.9782 667.05 69.0512 665.908 67.7969C664.767 66.5427 663.955 65.6157 663.473 65.0159C662.483 67.0204 662.228 69.3059 662.751 71.4778C663.27 74.124 664.056 76.7115 665.096 79.201C666.17 81.8187 667.405 84.3677 668.794 86.8335C670.171 89.2884 671.283 91.4132 672.129 93.2079Z" fill="white"/>
</g>
<defs>
<clipPath id="clip0">
<rect width="687" height="132" fill="white"/>
</clipPath>
</defs>
</svg>
